<?xml version="1.0" encoding="UTF-8" standalone="no"?>
<!-- Created with Inkscape (http://www.inkscape.org/) -->

<svg
   xmlns:dc="http://purl.org/dc/elements/1.1/"
   xmlns:cc="http://creativecommons.org/ns#"
   xmlns:rdf="http://www.w3.org/1999/02/22-rdf-syntax-ns#"
   xmlns:svg="http://www.w3.org/2000/svg"
   xmlns="http://www.w3.org/2000/svg"
   xmlns:sodipodi="http://sodipodi.sourceforge.net/DTD/sodipodi-0.dtd"
   xmlns:inkscape="http://www.inkscape.org/namespaces/inkscape"
   width="2125.9841"
   height="5669.291"
   id="svg13838"
   version="1.1"
   inkscape:version="0.48.1 r9760"
   sodipodi:docname="banner-hitam-1.svg"
   inkscape:export-filename="/media/60G/Dokumen/publikasi blankon/banner-hitam-1.png"
   inkscape:export-xdpi="100"
   inkscape:export-ydpi="100">
  <defs
     id="defs13840" />
  <sodipodi:namedview
     id="base"
     pagecolor="#ffffff"
     bordercolor="#666666"
     borderopacity="1.0"
     inkscape:pageopacity="0.0"
     inkscape:pageshadow="2"
     inkscape:zoom="0.087500001"
     inkscape:cx="1610.1347"
     inkscape:cy="3014.2761"
     inkscape:document-units="cm"
     inkscape:current-layer="layer1"
     showgrid="false"
     units="cm"
     showguides="true"
     inkscape:guide-bbox="true"
     inkscape:window-width="1280"
     inkscape:window-height="763"
     inkscape:window-x="0"
     inkscape:window-y="0"
     inkscape:window-maximized="1">
    <sodipodi:guide
       orientation="1,0"
       position="0,4125.7143"
       id="guide13846" />
    <sodipodi:guide
       orientation="0,1"
       position="-2537.1429,0"
       id="guide13848" />
    <sodipodi:guide
       orientation="0,1"
       position="-1748.5714,5669.2913"
       id="guide13854" />
    <sodipodi:guide
       orientation="1,0"
       position="2125.9843,4845.7143"
       id="guide13856" />
    <sodipodi:guide
       orientation="1,0"
       position="1062.9921,3087.0262"
       id="guide14735" />
    <sodipodi:guide
       orientation="1,0"
       position="177.16535,2190.0107"
       id="guide14737" />
    <sodipodi:guide
       orientation="1,0"
       position="1948.8189,2917.3205"
       id="guide14739" />
    <sodipodi:guide
       orientation="0,1"
       position="-1729.3812,177.16535"
       id="guide14741" />
    <sodipodi:guide
       orientation="0,1"
       position="-1729.3812,5492.126"
       id="guide14743" />
    <sodipodi:guide
       orientation="0,1"
       position="-1840,2834.6457"
       id="guide14745" />
    <sodipodi:guide
       orientation="0,1"
       position="-914.28571,354.33071"
       id="guide14796" />
    <sodipodi:guide
       orientation="0,1"
       position="-128.57143,5580.7087"
       id="guide14825" />
    <sodipodi:guide
       orientation="0,1"
       position="177.16535,5137.7953"
       id="guide14831" />
    <sodipodi:guide
       orientation="0,1"
       position="-437.14285,531.49606"
       id="guide3038" />
  </sodipodi:namedview>
  <metadata
     id="metadata13843">
    <rdf:RDF>
      <cc:Work
         rdf:about="">
        <dc:format>image/svg+xml</dc:format>
        <dc:type
           rdf:resource="http://purl.org/dc/dcmitype/StillImage" />
        <dc:title></dc:title>
      </cc:Work>
    </rdf:RDF>
  </metadata>
  <g
     inkscape:label="Layer 1"
     inkscape:groupmode="layer"
     id="layer1"
     transform="translate(0,4616.9309)">
    <rect
       style="fill:#000000;fill-opacity:1;stroke:none;stroke-width:0;stroke-miterlimit:4;stroke-dasharray:none"
       id="rect13877"
       width="2125.9841"
       height="5669.2915"
       x="0.00016914062"
       y="-4616.9312" />
    <g
       id="g14708"
       transform="matrix(0,1.36302,-1.36302,0,-1300.3059,824.03789)">
      <g
         id="g14723"
         transform="matrix(0,-1.6997123,1.6997123,0,-664.69265,-7926.0632)">
        <g
           id="g14719"
           transform="matrix(5.4489077,0,0,5.4489077,18007.227,6196.7917)">
          <path
             inkscape:export-ydpi="285.01001"
             inkscape:export-xdpi="285.01001"
             inkscape:export-filename="/home/mdamt/rect4269.png"
             inkscape:connector-curvature="0"
             id="path3497"
             d="m -3939.4343,-1329.5525 c 0,23.7505 -19.2536,43.0041 -43.0042,43.0041 -23.7505,0 -43.0041,-19.2536 -43.0041,-43.0041 0,-23.7506 19.2536,-43.0042 43.0041,-43.0042 23.7506,0 43.0042,19.2536 43.0042,43.0042 z"
             style="fill:none;stroke:#ffffff;stroke-width:22.08471298;stroke-miterlimit:4;stroke-dasharray:none" />
          <path
             inkscape:export-ydpi="285.01001"
             inkscape:export-xdpi="285.01001"
             inkscape:connector-curvature="0"
             id="rect4269"
             d="m -3920.1662,-1373.2274 1.0094,0 0,92.299 -1.0094,0 z"
             style="fill:#aa0000;fill-opacity:1;stroke:#ff0000;stroke-width:17.96163559;stroke-linecap:round;stroke-linejoin:round;stroke-miterlimit:4;stroke-opacity:1" />
        </g>
        <g
           id="g3040"
           transform="matrix(1.2820399,0,0,1.2820399,912.2428,55.685419)">
          <path
             inkscape:connector-curvature="0"
             id="path4275"
             style="font-size:75.31466675px;font-style:normal;font-weight:bold;line-height:125%;letter-spacing:0px;word-spacing:0px;fill:#ffffff;fill-opacity:1;stroke:none;font-family:Sans;-inkscape-font-specification:Sans Bold"
             d="m -3811.6978,-1372.9545 -18.0114,0 0,33.9037 c 0.2354,0 1.3538,0 3.3551,0 2.0014,-0.1177 3.8848,-0.1766 5.6507,-0.1766 1.8834,-0.1177 4.4144,-0.2942 7.593,-0.5297 3.2962,-0.3531 5.8272,-0.7063 7.5929,-1.0595 1.8837,-0.4708 4.0025,-1.1772 6.3571,-2.119 2.4719,-0.9417 4.2967,-2.0601 5.4739,-3.3551 3.0607,-3.0606 4.5912,-6.8277 4.5912,-11.3012 0,-7.5341 -4.2381,-12.3017 -12.714,-14.3031 -2.8252,-0.7062 -6.1215,-1.0594 -9.8885,-1.0595 m 1.2361,47.6771 -19.2475,1.0595 0,35.4929 17.3052,0 c 7.6518,0 13.008,-0.3532 16.0689,-1.0595 3.1783,-0.7063 5.886,-1.4715 8.1228,-2.2956 2.2365,-0.9417 4.0024,-2.0012 5.2973,-3.1784 3.2963,-2.8253 4.9443,-6.4747 4.9443,-10.9481 0,-5.886 -2.9432,-10.536 -8.829,-13.95 -5.7684,-3.4138 -13.6558,-5.1208 -23.662,-5.1208 m -40.967,-66.0416 44.1455,0 c 11.5365,10e-5 20.4835,1.9425 26.8404,5.8272 6.2391,3.7672 10.4181,8.0051 12.5374,12.7139 2.0011,4.5912 2.9429,8.8292 2.8252,12.7139 0,3.8848 -1.0595,7.8874 -3.1785,12.0075 -2.0014,4.0026 -4.65,7.3577 -7.9461,10.0652 9.5352,3.8848 15.7744,10.8892 18.7176,21.0132 0.8239,3.1785 1.236,6.2981 1.236,9.3588 0,2.9431 -0.353,5.8861 -1.0595,8.8291 -0.7064,2.9431 -2.2956,6.2981 -4.7677,10.0652 -2.3544,3.6493 -5.415,6.9456 -9.1821,9.8886 -3.7673,2.8253 -9.0646,5.2386 -15.8923,7.2398 -6.7102,1.8836 -14.4211,2.8253 -23.1324,2.8253 l -41.1435,0 0,-122.5477" />
          <path
             inkscape:connector-curvature="0"
             id="path4279"
             style="font-size:75.31466675px;font-style:normal;font-weight:bold;line-height:125%;letter-spacing:0px;word-spacing:0px;fill:#ffffff;fill-opacity:1;stroke:none;font-family:Sans;-inkscape-font-specification:Sans Bold"
             d="m -3710.8308,-1349.9989 c 11.0657,-3.767 21.2487,-5.6505 30.5488,-5.6506 9.4175,10e-5 16.775,0.8241 22.0726,2.4721 5.4151,1.6482 9.4764,4.0026 12.1841,7.0633 5.062,5.533 7.593,12.7139 7.593,21.543 l 0,55.7998 -15.8923,0 -2.2956,-5.6506 c -7.7697,4.9443 -16.4811,7.4164 -26.1342,7.4164 -13.4202,0 -23.5441,-3.8259 -30.372,-11.4778 -3.6494,-4.2379 -5.4739,-8.7113 -5.4739,-13.4202 0,-4.3557 0.5885,-8.005 1.7657,-10.9481 1.1772,-3.0607 3.1197,-5.5328 5.8272,-7.4164 2.7076,-2.0012 5.5919,-3.5904 8.6525,-4.7677 3.0609,-1.2949 7.0633,-2.2367 12.0076,-2.8253 8.0051,-0.9417 18.2467,-1.4126 30.7253,-1.4127 l 0,-1.2361 c -2e-4,-7.7695 -3.1786,-12.7138 -9.5354,-14.8328 -2.9432,-0.9417 -7.299,-1.4126 -13.0671,-1.4127 -5.7684,10e-5 -13.7147,1.2362 -23.8386,3.7082 l -3.3551,1.0595 -4.4144,-17.1284 3.0018,-0.8829 m 51.2088,59.1549 0,-12.3607 -2.119,0 c -12.9494,0 -21.9552,0.5297 -27.0172,1.5892 -4.9442,1.0595 -7.4164,3.6494 -7.4164,7.7696 0,2.7076 1.5892,4.8266 4.7677,6.3569 3.2963,1.5304 8.064,2.2956 14.3032,2.2956 6.2392,0 12.0664,-1.8835 17.4817,-5.6506" />
          <path
             inkscape:connector-curvature="0"
             id="path4281"
             style="font-size:75.31466675px;font-style:normal;font-weight:bold;line-height:125%;letter-spacing:0px;word-spacing:0px;fill:#ffffff;fill-opacity:1;stroke:none;font-family:Sans;-inkscape-font-specification:Sans Bold"
             d="m -3629.8089,-1353.8837 14.8328,0 2.8252,5.8272 c 11.0657,-5.0619 21.0722,-7.5929 30.0189,-7.593 14.5974,10e-5 24.0151,5.4152 28.2532,16.2455 2.1188,5.4152 3.2372,12.1842 3.3549,20.3069 l 0,50.3258 -21.3662,0 0,-49.9726 c -3e-4,-6.0037 -1.2952,-10.3006 -3.8848,-12.8905 -2.7078,-2.8253 -7.0047,-4.2379 -12.8905,-4.238 -5.7684,10e-5 -12.4198,1.5893 -19.9539,4.7677 l 0,62.3334 -21.1896,0 0,-85.1124" />
          <path
             inkscape:connector-curvature="0"
             id="path4283"
             style="font-size:75.31466675px;font-style:normal;font-weight:bold;line-height:125%;letter-spacing:0px;word-spacing:0px;fill:#ffffff;fill-opacity:1;stroke:none;font-family:Sans;-inkscape-font-specification:Sans Bold"
             d="m -3520.2555,-1319.8034 36.7291,-35.8461 25.4277,0 -42.0265,39.0246 43.4391,47.8536 -26.1341,0 -37.4353,-42.3796 0,42.3796 -21.1899,0 0,-122.5477 21.1899,0 0,71.5156" />
          <path
             inkscape:connector-curvature="0"
             id="path4285"
             style="font-size:75.31466675px;font-style:normal;font-weight:bold;line-height:125%;letter-spacing:0px;word-spacing:0px;fill:#ffffff;fill-opacity:1;stroke:none;font-family:Sans;-inkscape-font-specification:Sans Bold"
             d="m -3400.114,-1383.1768 c 11.3011,2e-4 21.4839,2.4723 30.5486,7.4165 9.0644,4.8266 16.2454,11.9488 21.543,21.3664 5.415,9.4177 8.1225,20.2481 8.1228,32.491 -3e-4,18.8354 -5.7686,34.198 -17.3052,46.0879 -11.4191,11.7721 -25.9576,17.6581 -43.6156,17.6581 -15.6569,0 -29.3716,-5.1208 -41.1435,-15.3626 -5.6507,-4.9442 -10.183,-11.4778 -13.5968,-19.6006 -3.4139,-8.1227 -5.121,-17.1872 -5.121,-27.1936 0,-18.8353 5.7095,-34.0213 17.1286,-45.558 11.5365,-11.5366 26.0162,-17.3049 43.4391,-17.3051 m 12.8903,22.4259 c -4.4735,-1.648 -9.0644,-2.472 -13.7733,-2.4721 -4.5911,10e-5 -9.0646,0.8241 -13.4201,2.4721 -4.3558,1.6482 -8.3583,4.0615 -12.0076,7.2399 -3.6494,3.1785 -6.5925,7.4754 -8.8293,12.8904 -2.1188,5.4153 -3.1783,11.5957 -3.1783,18.5411 0,13.3026 3.7082,24.0152 11.1246,32.1379 7.4164,8.0051 16.6576,12.0076 27.7233,12.0076 9.5355,0 17.9525,-3.2962 25.2512,-9.8886 3.6494,-3.2962 6.5923,-7.7696 8.8291,-13.4202 2.2367,-5.6506 3.3551,-12.0664 3.3551,-19.2474 0,-7.2987 -1.1773,-13.7733 -3.5317,-19.424 -2.2367,-5.6506 -5.2976,-10.124 -9.1821,-13.4202 -3.7673,-3.2961 -7.8874,-5.7683 -12.3609,-7.4165" />
          <path
             inkscape:connector-curvature="0"
             id="path4287"
             style="font-size:75.31466675px;font-style:normal;font-weight:bold;line-height:125%;letter-spacing:0px;word-spacing:0px;fill:#ffffff;fill-opacity:1;stroke:none;font-family:Sans;-inkscape-font-specification:Sans Bold"
             d="m -3334.2288,-1353.8837 14.8331,0 2.8252,5.8272 c 11.0657,-5.0619 21.0719,-7.5929 30.0189,-7.593 14.5974,10e-5 24.0151,5.4152 28.2529,16.2455 2.1191,5.4152 3.2374,12.1842 3.3551,20.3069 l 0,50.3258 -21.3664,0 0,-49.9726 c 0,-6.0037 -1.2949,-10.3006 -3.8848,-12.8905 -2.7075,-2.8253 -7.0044,-4.2379 -12.8903,-4.238 -5.7683,10e-5 -12.4197,1.5893 -19.9538,4.7677 l 0,62.3334 -21.1899,0 0,-85.1124" />
          <rect
             ry="2.8008776"
             y="-1391.4086"
             x="-3749.0376"
             height="123.23861"
             width="23.478613"
             id="rect2999"
             style="fill:#ffffff;fill-opacity:1;stroke:none" />
        </g>
      </g>
    </g>
    <rect
       style="fill:#ff0000;fill-opacity:1;stroke:none"
       id="rect14823"
       width="2125.9844"
       height="531.49603"
       x="-7.5000004e-05"
       y="520.86407" />
    <rect
       style="fill:#ffffff;fill-opacity:1;stroke:none"
       id="rect14827"
       width="2125.9844"
       height="88.582603"
       x="0"
       y="-0.00028437501"
       transform="translate(0,-4616.9309)" />
    <g
       id="g14798"
       transform="translate(88.582687,1.1338569)">
      <g
         transform="matrix(0.98501944,0,0,0.98501944,17.899489,-89.245856)"
         id="text14747"
         style="font-size:10px;font-style:normal;font-weight:normal;line-height:125%;letter-spacing:0px;word-spacing:0px;fill:#ffffff;fill-opacity:1;stroke:none;font-family:Sans">
        <path
           inkscape:connector-curvature="0"
           id="path14752"
           style="font-size:144px;font-variant:normal;font-weight:bold;font-stretch:normal;fill:#ffffff;font-family:Cantarell;-inkscape-font-specification:Cantarell Bold"
           d="m 251.61792,725.80935 18.576,0 16.56,51.408 17.712,-51.408 15.552,0 16.56,51.552 18.576,-51.552 18.576,0 -29.376,69.408 -15.84,0 -16.272,-49.968 -18.144,49.968 -15.696,0 -26.784,-69.408" />
        <path
           inkscape:connector-curvature="0"
           id="path14754"
           style="font-size:144px;font-variant:normal;font-weight:bold;font-stretch:normal;fill:#ffffff;font-family:Cantarell;-inkscape-font-specification:Cantarell Bold"
           d="m 377.89917,725.80935 18.576,0 16.56,51.408 17.712,-51.408 15.552,0 16.56,51.552 18.576,-51.552 18.576,0 -29.376,69.408 -15.84,0 -16.272,-49.968 -18.144,49.968 -15.696,0 -26.784,-69.408" />
        <path
           inkscape:connector-curvature="0"
           id="path14756"
           style="font-size:144px;font-variant:normal;font-weight:bold;font-stretch:normal;fill:#ffffff;font-family:Cantarell;-inkscape-font-specification:Cantarell Bold"
           d="m 504.18042,725.80935 18.576,0 16.56,51.408 17.712,-51.408 15.552,0 16.56,51.552 18.576,-51.552 18.576,0 -29.376,69.408 -15.84,0 -16.272,-49.968 -18.144,49.968 -15.696,0 -26.784,-69.408" />
        <path
           inkscape:connector-curvature="0"
           id="path14758"
           style="font-size:144px;font-variant:normal;font-weight:bold;font-stretch:normal;fill:#ffffff;font-family:Cantarell;-inkscape-font-specification:Cantarell Bold"
           d="m 634.49367,777.50535 20.448,0 0,20.592 -20.448,0 0,-20.592" />
        <path
           inkscape:connector-curvature="0"
           id="path14760"
           style="font-size:144px;font-variant:normal;font-weight:bold;font-stretch:normal;fill:#ffffff;font-family:Cantarell;-inkscape-font-specification:Cantarell Bold"
           d="m 671.25417,695.28135 17.28,0 0,32.112 c 5.18397,-2.01593 9.88796,-3.02393 14.112,-3.024 4.31995,7e-5 7.77595,0.24007 10.368,0.72 2.59194,0.48007 5.18394,1.24807 7.776,2.304 2.68794,1.05606 5.13593,2.54406 7.344,4.464 2.20793,1.82406 4.22393,3.98406 6.048,6.48 3.74392,5.37605 5.61592,12.48004 5.616,21.312 -8e-5,11.42402 -3.40808,20.44801 -10.224,27.072 -6.72006,6.624 -15.55205,9.93599 -26.496,9.936 -6.14404,-10e-6 -12.19203,-1.248 -18.144,-3.744 l -0.864,2.304 -12.816,0 0,-99.936 m 39.168,45.936 c -1.63205,-0.57595 -3.21605,-0.95995 -4.752,-1.152 -1.53604,-0.28795 -3.79204,-0.43195 -6.768,-0.432 -2.88004,5e-5 -6.33603,0.76805 -10.368,2.304 l 0,37.872 c 4.31997,1.34401 8.11196,2.01601 11.376,2.016 3.35996,1e-5 6.14395,-0.28799 8.352,-0.864 2.30395,-0.57599 4.60795,-1.53599 6.912,-2.88 2.30394,-1.43999 4.12794,-3.55198 5.472,-6.336 1.43994,-2.87998 2.15994,-6.04797 2.16,-9.504 -6e-5,-3.45597 -0.33606,-6.33596 -1.008,-8.64 -0.67206,-2.39996 -1.58406,-4.36796 -2.736,-5.904 -1.15206,-1.53595 -2.44806,-2.83195 -3.888,-3.888 -1.44005,-1.15195 -3.02405,-2.01595 -4.752,-2.592" />
        <path
           inkscape:connector-curvature="0"
           id="path14762"
           style="font-size:144px;font-variant:normal;font-weight:bold;font-stretch:normal;fill:#ffffff;font-family:Cantarell;-inkscape-font-specification:Cantarell Bold"
           d="m 778.21692,785.13735 c 1.34397,0.48001 3.02396,0.72001 5.04,0.72 2.11196,10e-6 4.89596,-0.52799 8.352,-1.584 l 0,8.928 c -0.19205,0.096 -0.86405,0.384 -2.016,0.864 -1.15204,0.48 -2.20804,0.864 -3.168,1.152 -3.07204,0.864 -7.92003,1.34399 -14.544,1.44 -4.51202,-10e-6 -8.16002,-1.536 -10.944,-4.608 -2.68801,-3.072 -4.03201,-7.05599 -4.032,-11.952 l 0,-84.816 17.28,0 0,80.64 c -3e-5,5.18401 1.34397,8.25601 4.032,9.216" />
        <path
           inkscape:connector-curvature="0"
           id="path14764"
           style="font-size:144px;font-variant:normal;font-weight:bold;font-stretch:normal;fill:#ffffff;font-family:Cantarell;-inkscape-font-specification:Cantarell Bold"
           d="m 805.90317,728.97735 c 9.02398,-3.07193 17.32797,-4.60793 24.912,-4.608 7.67995,7e-5 13.67995,0.67207 18,2.016 4.41594,1.34406 7.72793,3.26406 9.936,5.76 4.12793,4.51205 6.19193,10.36805 6.192,17.568 l 0,45.504 -12.96,0 -1.872,-4.608 c -6.33605,4.032 -13.44005,6.04799 -21.312,6.048 -10.94403,-10e-6 -19.20002,-3.12 -24.768,-9.36 -2.97601,-3.45599 -4.46401,-7.10399 -4.464,-10.944 -1e-5,-3.55198 0.47999,-6.52798 1.44,-8.928 0.95999,-2.49597 2.54399,-4.51197 4.752,-6.048 2.20798,-1.63197 4.55998,-2.92797 7.056,-3.888 2.49598,-1.05597 5.75997,-1.82396 9.792,-2.304 6.52796,-0.76796 14.87995,-1.15196 25.056,-1.152 l 0,-1.008 c -6e-5,-6.33596 -2.59205,-10.36795 -7.776,-12.096 -2.40005,-0.76795 -5.95204,-1.15195 -10.656,-1.152 -4.70403,5e-5 -11.18403,1.00805 -19.44,3.024 l -2.736,0.864 -3.6,-13.968 2.448,-0.72 m 41.76,48.24 0,-10.08 -1.728,0 c -10.56004,2e-5 -17.90404,0.43202 -22.032,1.296 -4.03203,0.86402 -6.04803,2.97602 -6.048,6.336 -3e-5,2.20801 1.29597,3.93601 3.888,5.184 2.68797,1.24801 6.57596,1.87201 11.664,1.872 5.08795,1e-5 9.83995,-1.53599 14.256,-4.608" />
        <path
           inkscape:connector-curvature="0"
           id="path14766"
           style="font-size:144px;font-variant:normal;font-weight:bold;font-stretch:normal;fill:#ffffff;font-family:Cantarell;-inkscape-font-specification:Cantarell Bold"
           d="m 883.44717,725.80935 12.096,0 2.304,4.752 c 9.02397,-4.12794 17.18396,-6.19193 24.48,-6.192 11.90394,7e-5 19.58393,4.41606 23.04,13.248 1.72793,4.41605 2.63992,9.93604 2.736,16.56 l 0,41.04 -17.424,0 0,-40.752 c -6e-5,-4.89596 -1.05606,-8.39995 -3.168,-10.512 -2.20805,-2.30395 -5.71205,-3.45595 -10.512,-3.456 -4.70404,5e-5 -10.12803,1.29605 -16.272,3.888 l 0,50.832 -17.28,0 0,-69.408" />
        <path
           inkscape:connector-curvature="0"
           id="path14768"
           style="font-size:144px;font-variant:normal;font-weight:bold;font-stretch:normal;fill:#ffffff;font-family:Cantarell;-inkscape-font-specification:Cantarell Bold"
           d="m 984.25842,753.60135 29.95198,-29.232 20.736,0 -34.272,31.824 35.424,39.024 -21.312,0 -30.52798,-34.56 0,34.56 -17.28,0 0,-99.936 17.28,0 0,58.32" />
        <path
           inkscape:connector-curvature="0"
           id="path14770"
           style="font-size:144px;font-variant:normal;font-weight:bold;font-stretch:normal;fill:#ffffff;font-family:Cantarell;-inkscape-font-specification:Cantarell Bold"
           d="m 1044.8239,761.23335 c 0,-11.23196 3.456,-20.15995 10.368,-26.784 6.912,-6.71994 15.792,-10.07993 26.64,-10.08 10.944,7e-5 19.824,3.12006 26.64,9.36 6.9119,6.14405 10.3679,14.78404 10.368,25.92 -10e-5,11.13602 -3.5041,20.11201 -10.512,26.928 -6.912,6.72 -16.32,10.07999 -28.224,10.08 -11.904,-10e-6 -21.216,-4.224 -27.936,-12.672 -4.8,-6.23999 -7.248,-13.82398 -7.344,-22.752 m 53.856,-11.664 c -2.112,-3.35995 -4.704,-5.75995 -7.776,-7.2 -3.072,-1.53595 -6.288,-2.30395 -9.648,-2.304 -3.264,5e-5 -6.336,0.67205 -9.216,2.016 -2.784,1.34405 -5.184,3.55205 -7.2,6.624 -1.92,2.97604 -2.88,6.52804 -2.88,10.656 0,6.14403 1.872,11.28002 5.616,15.408 3.84,4.12801 8.64,6.19201 14.4,6.192 5.856,10e-6 10.608,-1.77599 14.256,-5.328 3.744,-3.64798 5.616,-8.06398 5.616,-13.248 0,-5.27997 -1.056,-9.55196 -3.168,-12.816" />
        <path
           inkscape:connector-curvature="0"
           id="path14772"
           style="font-size:144px;font-variant:normal;font-weight:bold;font-stretch:normal;fill:#ffffff;font-family:Cantarell;-inkscape-font-specification:Cantarell Bold"
           d="m 1134.8847,725.80935 12.096,0 2.304,4.752 c 9.0239,-4.12794 17.1839,-6.19193 24.48,-6.192 11.9039,7e-5 19.5839,4.41606 23.04,13.248 1.7279,4.41605 2.6399,9.93604 2.736,16.56 l 0,41.04 -17.424,0 0,-40.752 c -10e-5,-4.89596 -1.0561,-8.39995 -3.168,-10.512 -2.2081,-2.30395 -5.7121,-3.45595 -10.512,-3.456 -4.7041,5e-5 -10.1281,1.29605 -16.272,3.888 l 0,50.832 -17.28,0 0,-69.408" />
        <path
           inkscape:connector-curvature="0"
           id="path14774"
           style="font-size:144px;font-variant:normal;font-weight:bold;font-stretch:normal;fill:#ffffff;font-family:Cantarell;-inkscape-font-specification:Cantarell Bold"
           d="m 1240.5919,785.13735 c 1.344,0.48001 3.024,0.72001 5.04,0.72 2.112,10e-6 4.896,-0.52799 8.352,-1.584 l 0,8.928 c -0.192,0.096 -0.864,0.384 -2.016,0.864 -1.152,0.48 -2.208,0.864 -3.168,1.152 -3.072,0.864 -7.92,1.34399 -14.544,1.44 -4.512,-10e-6 -8.16,-1.536 -10.944,-4.608 -2.688,-3.072 -4.032,-7.05599 -4.032,-11.952 l 0,-84.816 17.28,0 0,80.64 c 0,5.18401 1.344,8.25601 4.032,9.216" />
        <path
           inkscape:connector-curvature="0"
           id="path14776"
           style="font-size:144px;font-variant:normal;font-weight:bold;font-stretch:normal;fill:#ffffff;font-family:Cantarell;-inkscape-font-specification:Cantarell Bold"
           d="m 1264.1022,695.28135 19.296,0 0,19.008 -19.296,0 0,-19.008 m 1.008,30.528 17.28,0 0,69.408 -17.28,0 0,-69.408" />
        <path
           inkscape:connector-curvature="0"
           id="path14778"
           style="font-size:144px;font-variant:normal;font-weight:bold;font-stretch:normal;fill:#ffffff;font-family:Cantarell;-inkscape-font-specification:Cantarell Bold"
           d="m 1301.3847,725.80935 12.096,0 2.304,4.752 c 9.0239,-4.12794 17.1839,-6.19193 24.48,-6.192 11.9039,7e-5 19.5839,4.41606 23.04,13.248 1.7279,4.41605 2.6399,9.93604 2.736,16.56 l 0,41.04 -17.424,0 0,-40.752 c -10e-5,-4.89596 -1.0561,-8.39995 -3.168,-10.512 -2.2081,-2.30395 -5.7121,-3.45595 -10.512,-3.456 -4.7041,5e-5 -10.1281,1.29605 -16.272,3.888 l 0,50.832 -17.28,0 0,-69.408" />
        <path
           inkscape:connector-curvature="0"
           id="path14780"
           style="font-size:144px;font-variant:normal;font-weight:bold;font-stretch:normal;fill:#ffffff;font-family:Cantarell;-inkscape-font-specification:Cantarell Bold"
           d="m 1435.4599,790.46535 c -8.832,4.128 -17.088,6.19199 -24.768,6.192 -12.096,-10e-6 -19.824,-4.416 -23.184,-13.248 -1.728,-4.41599 -2.592,-9.93598 -2.592,-16.56 l 0,-41.04 17.28,0 0,40.896 c 0,4.03202 0.48,6.72002 1.44,8.064 0.96,1.24802 1.92,2.30401 2.88,3.168 2.016,1.72801 5.376,2.59201 10.08,2.592 4.704,10e-6 10.224,-1.29599 16.56,-3.888 l 0,-50.832 17.28,0 0,69.408 -12.816,0 -2.16,-4.752" />
        <path
           inkscape:connector-curvature="0"
           id="path14782"
           style="font-size:144px;font-variant:normal;font-weight:bold;font-stretch:normal;fill:#ffffff;font-family:Cantarell;-inkscape-font-specification:Cantarell Bold"
           d="m 1463.5309,725.80935 20.448,0 18.864,25.344 18.144,-25.344 19.584,0 -27.936,35.28 26.784,34.128 -20.448,0 -18,-23.904 -17.28,23.904 -19.296,0 26.64,-34.128 -27.504,-35.28" />
        <path
           inkscape:connector-curvature="0"
           id="path14784"
           style="font-size:144px;font-variant:normal;font-weight:bold;font-stretch:normal;fill:#ffffff;font-family:Cantarell;-inkscape-font-specification:Cantarell Bold"
           d="m 1547.7124,777.50535 20.448,0 0,20.592 -20.448,0 0,-20.592" />
        <path
           inkscape:connector-curvature="0"
           id="path14786"
           style="font-size:144px;font-variant:normal;font-weight:bold;font-stretch:normal;fill:#ffffff;font-family:Cantarell;-inkscape-font-specification:Cantarell Bold"
           d="m 1581.4489,761.23335 c 0,-11.23196 3.456,-20.15995 10.368,-26.784 6.912,-6.71994 15.792,-10.07993 26.64,-10.08 10.944,7e-5 19.824,3.12006 26.64,9.36 6.9119,6.14405 10.3679,14.78404 10.368,25.92 -10e-5,11.13602 -3.5041,20.11201 -10.512,26.928 -6.912,6.72 -16.32,10.07999 -28.224,10.08 -11.904,-10e-6 -21.216,-4.224 -27.936,-12.672 -4.8,-6.23999 -7.248,-13.82398 -7.344,-22.752 m 53.856,-11.664 c -2.112,-3.35995 -4.704,-5.75995 -7.776,-7.2 -3.072,-1.53595 -6.288,-2.30395 -9.648,-2.304 -3.264,5e-5 -6.336,0.67205 -9.216,2.016 -2.784,1.34405 -5.184,3.55205 -7.2,6.624 -1.92,2.97604 -2.88,6.52804 -2.88,10.656 0,6.14403 1.872,11.28002 5.616,15.408 3.84,4.12801 8.64,6.19201 14.4,6.192 5.856,10e-6 10.608,-1.77599 14.256,-5.328 3.744,-3.64798 5.616,-8.06398 5.616,-13.248 0,-5.27997 -1.056,-9.55196 -3.168,-12.816" />
        <path
           inkscape:connector-curvature="0"
           id="path14788"
           style="font-size:144px;font-variant:normal;font-weight:bold;font-stretch:normal;fill:#ffffff;font-family:Cantarell;-inkscape-font-specification:Cantarell Bold"
           d="m 1715.1417,741.93735 c -3.1681,-1.24795 -7.1041,-1.87195 -11.808,-1.872 -4.7041,5e-5 -9.5521,1.10405 -14.544,3.312 l 0,51.84 -17.28,0 0,-69.408 11.52,0 2.016,3.6 c 6.7199,-3.35993 13.2959,-5.03993 19.728,-5.04 6.5279,7e-5 11.9039,1.00807 16.128,3.024 l 2.448,1.152 -5.472,14.4 -2.736,-1.008" />
        <path
           inkscape:connector-curvature="0"
           id="path14790"
           style="font-size:144px;font-variant:normal;font-weight:bold;font-stretch:normal;fill:#ffffff;font-family:Cantarell;-inkscape-font-specification:Cantarell Bold"
           d="m 1731.3687,777.50535 20.448,0 0,20.592 -20.448,0 0,-20.592" />
        <path
           inkscape:connector-curvature="0"
           id="path14792"
           style="font-size:144px;font-variant:normal;font-weight:bold;font-stretch:normal;fill:#ffffff;font-family:Cantarell;-inkscape-font-specification:Cantarell Bold"
           d="m 1766.9772,695.28135 19.296,0 0,19.008 -19.296,0 0,-19.008 m 1.008,30.528 17.28,0 0,69.408 -17.28,0 0,-69.408" />
        <path
           inkscape:connector-curvature="0"
           id="path14794"
           style="font-size:144px;font-variant:normal;font-weight:bold;font-stretch:normal;fill:#ffffff;font-family:Cantarell;-inkscape-font-specification:Cantarell Bold"
           d="m 1801.6677,761.66535 c 0,-5.95196 0.912,-11.27996 2.736,-15.984 1.92,-4.79995 4.512,-8.73595 7.776,-11.808 6.8159,-6.33594 15.5519,-9.50393 26.208,-9.504 5.2799,7e-5 10.1759,0.76807 14.688,2.304 l 0,-31.248 17.28,0 0,99.792 -12.672,0 -1.44,-3.168 c -6.3361,3.072 -13.0081,4.60799 -20.016,4.608 -11.2321,-10e-6 -20.0161,-3.552 -26.352,-10.656 -5.472,-6.14399 -8.208,-14.25598 -8.208,-24.336 m 24.624,15.696 c 2.3039,1.44001 4.6079,2.49601 6.912,3.168 2.3039,0.57601 5.1359,0.86401 8.496,0.864 3.3599,10e-6 7.1519,-0.81599 11.376,-2.448 l 0,-37.728 c -4.5121,-1.34395 -8.0641,-2.01595 -10.656,-2.016 -2.4961,5e-5 -4.2241,0.048 -5.184,0.144 -0.9601,0.096 -2.0161,0.28805 -3.168,0.576 -1.1521,0.19205 -2.2561,0.48005 -3.312,0.864 -0.9601,0.28805 -1.9681,0.72005 -3.024,1.296 -0.9601,0.57605 -1.9201,1.24805 -2.88,2.016 -0.8641,0.67205 -1.6801,1.53605 -2.448,2.592 -0.7681,1.05604 -1.3921,2.25604 -1.872,3.6 -1.1521,2.68804 -1.7281,6.04804 -1.728,10.08 -10e-5,3.93603 0.6719,7.39202 2.016,10.368 1.4399,2.97602 3.2639,5.18402 5.472,6.624" />
      </g>
    </g>
  </g>
</svg>
