<?xml version="1.0" encoding="UTF-8" standalone="no"?>
<!-- Created with Inkscape (http://www.inkscape.org/) -->

<svg
   xmlns:dc="http://purl.org/dc/elements/1.1/"
   xmlns:cc="http://creativecommons.org/ns#"
   xmlns:rdf="http://www.w3.org/1999/02/22-rdf-syntax-ns#"
   xmlns:svg="http://www.w3.org/2000/svg"
   xmlns="http://www.w3.org/2000/svg"
   xmlns:sodipodi="http://sodipodi.sourceforge.net/DTD/sodipodi-0.dtd"
   xmlns:inkscape="http://www.inkscape.org/namespaces/inkscape"
   width="2125.9841"
   height="5669.291"
   id="svg13838"
   version="1.1"
   inkscape:version="0.48.1 r9760"
   sodipodi:docname="banner-putih-1.svg"
   inkscape:export-filename="/media/60G/Dokumen/publikasi blankon/banner-putih-1.png"
   inkscape:export-xdpi="100"
   inkscape:export-ydpi="100">
  <defs
     id="defs13840" />
  <sodipodi:namedview
     id="base"
     pagecolor="#ffffff"
     bordercolor="#666666"
     borderopacity="1.0"
     inkscape:pageopacity="0.0"
     inkscape:pageshadow="2"
     inkscape:zoom="0.0875"
     inkscape:cx="-1138.5167"
     inkscape:cy="2478.1488"
     inkscape:document-units="cm"
     inkscape:current-layer="layer1"
     showgrid="false"
     units="cm"
     showguides="true"
     inkscape:guide-bbox="true"
     inkscape:window-width="1280"
     inkscape:window-height="763"
     inkscape:window-x="0"
     inkscape:window-y="0"
     inkscape:window-maximized="1">
    <sodipodi:guide
       orientation="1,0"
       position="0,4125.7143"
       id="guide13846" />
    <sodipodi:guide
       orientation="0,1"
       position="-2537.1429,0"
       id="guide13848" />
    <sodipodi:guide
       orientation="0,1"
       position="-1748.5714,5669.2913"
       id="guide13854" />
    <sodipodi:guide
       orientation="1,0"
       position="2125.9843,4845.7143"
       id="guide13856" />
    <sodipodi:guide
       orientation="1,0"
       position="1062.9921,3087.0262"
       id="guide14735" />
    <sodipodi:guide
       orientation="1,0"
       position="177.16535,2190.0107"
       id="guide14737" />
    <sodipodi:guide
       orientation="1,0"
       position="1948.8189,2917.3205"
       id="guide14739" />
    <sodipodi:guide
       orientation="0,1"
       position="-1729.3812,177.16535"
       id="guide14741" />
    <sodipodi:guide
       orientation="0,1"
       position="-1729.3812,5492.126"
       id="guide14743" />
    <sodipodi:guide
       orientation="0,1"
       position="-1840,2834.6457"
       id="guide14745" />
    <sodipodi:guide
       orientation="0,1"
       position="-914.28571,354.33071"
       id="guide14796" />
    <sodipodi:guide
       orientation="0,1"
       position="-128.57143,5580.7087"
       id="guide14825" />
    <sodipodi:guide
       orientation="0,1"
       position="177.16535,5137.7953"
       id="guide14831" />
  </sodipodi:namedview>
  <metadata
     id="metadata13843">
    <rdf:RDF>
      <cc:Work
         rdf:about="">
        <dc:format>image/svg+xml</dc:format>
        <dc:type
           rdf:resource="http://purl.org/dc/dcmitype/StillImage" />
        <dc:title></dc:title>
      </cc:Work>
    </rdf:RDF>
  </metadata>
  <g
     inkscape:label="Layer 1"
     inkscape:groupmode="layer"
     id="layer1"
     transform="translate(0,4616.9309)">
    <rect
       style="fill:#ffffff;fill-opacity:1;stroke:none;stroke-width:0;stroke-miterlimit:4;stroke-dasharray:none"
       id="rect13877"
       width="2125.9841"
       height="5669.2915"
       x="0.00016914062"
       y="-4616.9312" />
    <g
       id="g14885">
      <path
         inkscape:export-ydpi="285.01001"
         inkscape:export-xdpi="285.01001"
         inkscape:export-filename="/home/mdamt/rect4269.png"
         inkscape:connector-curvature="0"
         id="path3497"
         d="m 1037.6259,-225.58799 c 126.3103,0 228.7052,102.39484 228.7052,228.7057063 0,126.3103337 -102.3949,228.7051737 -228.7052,228.7051737 -126.31087,0 -228.70571,-102.39484 -228.70571,-228.7051737 0,-126.3108663 102.39484,-228.7057063 228.70571,-228.7057063 z"
         style="fill:none;stroke:#000000;stroke-width:117.45131682999999612;stroke-miterlimit:4;stroke-dasharray:none" />
      <path
         inkscape:export-ydpi="285.01001"
         inkscape:export-xdpi="285.01001"
         inkscape:connector-curvature="0"
         id="rect4269"
         d="m 805.35326,-328.05994 0,-5.36821 490.86624,0 0,5.36821 z"
         style="fill:#aa0000;fill-opacity:1;stroke:#ff0000;stroke-width:95.52389526;stroke-linecap:round;stroke-linejoin:round;stroke-miterlimit:4;stroke-opacity:1" />
      <path
         inkscape:connector-curvature="0"
         id="path4275"
         style="font-size:75.31466675000000066px;font-style:normal;font-weight:bold;line-height:125%;letter-spacing:0px;word-spacing:0px;fill:#000000;fill-opacity:1;stroke:none;font-family:Sans;-inkscape-font-specification:Sans Bold"
         d="m 806.8046,-904.91853 0,95.78855 180.30727,0 c 0,-1.25191 0,-7.1998 0,-17.84315 -0.62596,-10.64388 -0.9392,-20.66022 -0.9392,-30.05166 -0.62596,-10.01633 -1.56462,-23.47674 -2.81706,-40.38123 -1.87786,-17.52991 -3.75626,-30.99032 -5.63465,-40.38069 -2.50382,-10.01793 -6.26061,-21.28617 -11.26931,-33.80845 -5.00816,-13.1461 -10.95606,-22.85078 -17.84315,-29.11134 -16.27694,-16.2775 -36.3112,-24.4171 -60.10224,-24.4171 -40.06799,0 -65.42312,22.5392 -76.06701,67.61587 -3.75572,15.02503 -5.63412,32.55547 -5.63465,52.5892 m 253.5572,-6.57385 5.6347,102.3624 188.7589,0 0,-92.03283 c 0,-40.69393 -1.8784,-69.17937 -5.6346,-85.45791 -3.7563,-16.90288 -7.8258,-31.30298 -12.2085,-43.19878 -5.0082,-11.8942 -10.6428,-21.2857 -16.9034,-28.1722 -15.0256,-17.5305 -34.4339,-26.2949 -58.2244,-26.2949 -31.3031,0 -56.0328,15.6526 -74.1892,46.9545 -18.1553,30.6777 -27.2335,72.62457 -27.2335,125.83972 m -351.22361,217.87143 0,-234.77539 c 5.3e-4,-61.35362 10.33064,-108.93576 30.99032,-142.74306 20.03479,-33.1809 42.57287,-55.4058 67.61529,-66.6767 24.417,-10.6422 46.95561,-15.6509 67.61529,-15.025 20.66021,0 41.94691,5.6347 63.8585,16.904 21.2867,10.6439 39.12985,24.7297 53.52893,42.2591 20.66018,-50.7103 57.91118,-83.8917 111.75278,-99.5443 16.904,-4.3817 33.4947,-6.5733 49.7721,-6.5733 15.6521,0 31.3036,1.8773 46.9551,5.6346 15.6521,3.7568 33.4947,12.2085 53.5289,25.3557 19.4078,12.5212 36.9383,28.7981 52.5898,48.8324 15.0255,20.0353 27.86,48.2075 38.5028,84.5187 10.0174,35.68632 15.0256,76.69456 15.0256,123.02315 l 0,218.8101 -651.73541,0" />
      <path
         inkscape:connector-curvature="0"
         id="path4279"
         style="font-size:75.31466675000000066px;font-style:normal;font-weight:bold;line-height:125%;letter-spacing:0px;word-spacing:0px;fill:#000000;fill-opacity:1;stroke:none;font-family:Sans;-inkscape-font-specification:Sans Bold"
         d="m 928.88749,-1441.3512 c -20.03373,-58.8498 -30.0506,-113.0052 -30.05113,-162.4652 5.3e-4,-50.0843 4.38275,-89.2131 13.14717,-117.3869 8.76549,-28.7987 21.2867,-50.3975 37.56417,-64.7977 29.4257,-26.9208 67.6153,-40.3812 114.5704,-40.3812 l 296.7555,0 0,84.5187 -30.0512,12.2085 c 26.2949,41.321 39.4421,87.6501 39.4421,138.9874 0,71.3715 -20.347,125.2126 -61.0415,161.5249 -22.538,19.4083 -46.3286,29.1114 -71.3715,29.1114 -23.1646,0 -42.5724,-3.1298 -58.2244,-9.3904 -16.2775,-6.2606 -29.4246,-16.5912 -39.442,-30.9903 -10.6428,-14.3996 -19.0946,-29.739 -25.3557,-46.0159 -6.8866,-16.2785 -11.8953,-37.5642 -15.0256,-63.859 -5.0081,-42.5729 -7.5125,-97.04 -7.513,-163.4039 l -6.5739,0 c -41.3198,0 -67.6147,16.9045 -78.884,50.7114 -5.0082,15.6525 -7.51253,38.8176 -7.51306,69.4936 5.3e-4,30.6777 6.57436,72.9378 19.72106,126.7789 l 5.6346,17.8432 -91.09256,23.4767 -4.69545,-15.9642 m 314.59861,-272.3396 -65.7369,0 0,11.2693 c 0,68.8678 2.8171,116.7626 8.4517,143.6834 5.6347,26.2943 19.4084,39.442 41.3205,39.442 14.3996,0 25.6689,-8.4517 33.8074,-25.3556 8.139,-17.5305 12.2085,-42.8862 12.2085,-76.0676 0,-33.1814 -10.0169,-64.1717 -30.0512,-92.9715" />
      <path
         inkscape:connector-curvature="0"
         id="path4281"
         style="font-size:75.31466675000000066px;font-style:normal;font-weight:bold;line-height:125%;letter-spacing:0px;word-spacing:0px;fill:#000000;fill-opacity:1;stroke:none;font-family:Sans;-inkscape-font-specification:Sans Bold"
         d="m 908.22727,-1872.2433 0,-78.8841 30.99032,-15.025 c -26.92029,-58.8498 -40.3807,-112.0666 -40.38123,-159.6471 5.3e-4,-77.6321 28.79922,-127.7175 86.39711,-150.2567 28.79923,-11.2682 64.79823,-17.2161 107.99653,-17.842 l 267.6436,0 0,113.6301 -265.7652,0 c -31.929,0 -54.7808,6.8881 -68.5545,20.6602 -15.0256,14.4006 -22.5381,37.2525 -22.5386,68.5545 5e-4,30.6776 8.4522,66.0512 25.3557,106.1192 l 331.5026,0 0,112.6909 -452.64633,0" />
      <path
         inkscape:connector-curvature="0"
         id="path4283"
         style="font-size:75.31466675000000066px;font-style:normal;font-weight:bold;line-height:125%;letter-spacing:0px;word-spacing:0px;fill:#000000;fill-opacity:1;stroke:none;font-family:Sans;-inkscape-font-specification:Sans Bold"
         d="m 1089.4737,-2454.8722 -190.63734,-195.3333 0,-135.2301 207.54134,223.5061 254.4959,-231.0186 0,138.9868 -225.384,199.0891 225.384,0 0,112.6925 -651.73541,0 0,-112.6925 380.33551,0" />
      <path
         inkscape:connector-curvature="0"
         id="path4285"
         style="font-size:75.31466675000000066px;font-style:normal;font-weight:bold;line-height:125%;letter-spacing:0px;word-spacing:0px;fill:#000000;fill-opacity:1;stroke:none;font-family:Sans;-inkscape-font-specification:Sans Bold"
         d="m 752.44018,-3093.8109 c 0.001,-60.1017 13.14823,-114.256 39.44257,-162.4641 25.66891,-48.2064 63.54632,-86.3966 113.63117,-114.5703 50.08538,-28.7982 107.68378,-43.1973 172.79418,-43.1989 100.1708,0 181.8725,30.6787 245.1055,92.0329 62.6066,60.7292 93.9097,138.0481 93.9097,231.9572 0,83.2668 -27.2336,156.2046 -81.7017,218.8101 -26.2943,30.0517 -61.0414,54.1554 -104.2403,72.3108 -43.1983,18.1558 -91.4052,27.2346 -144.6215,27.2346 -100.17018,0 -180.93264,-30.3644 -242.28732,-91.0937 -61.35416,-61.3536 -92.03123,-138.3598 -92.0323,-231.0186 m 119.26583,-68.5534 c -8.76443,23.7911 -13.14664,48.2065 -13.14717,73.2494 5.3e-4,24.4165 4.38274,48.2075 13.14717,71.371 8.76548,23.1651 21.59994,44.4513 38.50336,63.8591 16.90396,19.4083 39.75581,35.0603 68.55396,46.9561 28.79977,11.2683 61.66847,16.9029 98.60557,16.9029 70.7462,0 127.7181,-19.721 170.9164,-59.163 42.5729,-39.4421 63.859,-88.5888 63.859,-147.4386 0,-50.7119 -17.5299,-95.4753 -52.5897,-134.2914 -17.5299,-19.4083 -41.3204,-35.0593 -71.3716,-46.9551 -30.0511,-11.8952 -64.1717,-17.8431 -102.3618,-17.8431 -38.8161,0 -73.2494,6.2611 -103.30108,18.7823 -30.05112,11.8953 -53.84164,28.1738 -71.37155,48.8325 -17.52938,20.0353 -30.67708,41.9469 -39.44256,65.7379" />
      <path
         inkscape:connector-curvature="0"
         id="path4287"
         style="font-size:75.31466675000000066px;font-style:normal;font-weight:bold;line-height:125%;letter-spacing:0px;word-spacing:0px;fill:#000000;fill-opacity:1;stroke:none;font-family:Sans;-inkscape-font-specification:Sans Bold"
         d="m 908.22727,-3444.2027 0,-78.8857 30.99032,-15.025 c -26.92029,-58.8498 -40.3807,-112.065 -40.38123,-159.6471 5.3e-4,-77.6321 28.79922,-127.7175 86.39711,-150.255 28.79923,-11.2699 64.79823,-17.2172 107.99653,-17.8432 l 267.6436,0 0,113.6312 -265.7652,0 c -31.929,0 -54.7808,6.8865 -68.5545,20.6602 -15.0256,14.3991 -22.5381,37.2509 -22.5386,68.5534 5e-4,30.6771 8.4522,66.0507 25.3557,106.1187 l 331.5026,0 0,112.6925 -452.64633,0" />
      <rect
         transform="matrix(0,-1,1,0,0,0)"
         ry="14.895678"
         y="708.66187"
         x="1238.1592"
         height="655.40979"
         width="124.86438"
         id="rect2999"
         style="fill:#000000;fill-opacity:1;stroke:none" />
    </g>
    <g
       id="g14798"
       transform="translate(0,1.1338582)"
       style="fill:#000000">
      <g
         transform="matrix(0.98501944,0,0,0.98501944,17.899489,-89.245856)"
         id="text14747"
         style="font-size:10px;font-style:normal;font-weight:normal;line-height:125%;letter-spacing:0px;word-spacing:0px;fill:#000000;fill-opacity:1;stroke:none;font-family:Sans">
        <path
           inkscape:connector-curvature="0"
           id="path14752"
           style="font-size:144px;font-variant:normal;font-weight:bold;font-stretch:normal;fill:#000000;font-family:Cantarell;-inkscape-font-specification:Cantarell Bold"
           d="m 251.61792,725.80935 18.576,0 16.56,51.408 17.712,-51.408 15.552,0 16.56,51.552 18.576,-51.552 18.576,0 -29.376,69.408 -15.84,0 -16.272,-49.968 -18.144,49.968 -15.696,0 -26.784,-69.408" />
        <path
           inkscape:connector-curvature="0"
           id="path14754"
           style="font-size:144px;font-variant:normal;font-weight:bold;font-stretch:normal;fill:#000000;font-family:Cantarell;-inkscape-font-specification:Cantarell Bold"
           d="m 377.89917,725.80935 18.576,0 16.56,51.408 17.712,-51.408 15.552,0 16.56,51.552 18.576,-51.552 18.576,0 -29.376,69.408 -15.84,0 -16.272,-49.968 -18.144,49.968 -15.696,0 -26.784,-69.408" />
        <path
           inkscape:connector-curvature="0"
           id="path14756"
           style="font-size:144px;font-variant:normal;font-weight:bold;font-stretch:normal;fill:#000000;font-family:Cantarell;-inkscape-font-specification:Cantarell Bold"
           d="m 504.18042,725.80935 18.576,0 16.56,51.408 17.712,-51.408 15.552,0 16.56,51.552 18.576,-51.552 18.576,0 -29.376,69.408 -15.84,0 -16.272,-49.968 -18.144,49.968 -15.696,0 -26.784,-69.408" />
        <path
           inkscape:connector-curvature="0"
           id="path14758"
           style="font-size:144px;font-variant:normal;font-weight:bold;font-stretch:normal;fill:#000000;font-family:Cantarell;-inkscape-font-specification:Cantarell Bold"
           d="m 634.49367,777.50535 20.448,0 0,20.592 -20.448,0 0,-20.592" />
        <path
           inkscape:connector-curvature="0"
           id="path14760"
           style="font-size:144px;font-variant:normal;font-weight:bold;font-stretch:normal;fill:#000000;font-family:Cantarell;-inkscape-font-specification:Cantarell Bold"
           d="m 671.25417,695.28135 17.28,0 0,32.112 c 5.18397,-2.01593 9.88796,-3.02393 14.112,-3.024 4.31995,7e-5 7.77595,0.24007 10.368,0.72 2.59194,0.48007 5.18394,1.24807 7.776,2.304 2.68794,1.05606 5.13593,2.54406 7.344,4.464 2.20793,1.82406 4.22393,3.98406 6.048,6.48 3.74392,5.37605 5.61592,12.48004 5.616,21.312 -8e-5,11.42402 -3.40808,20.44801 -10.224,27.072 -6.72006,6.624 -15.55205,9.93599 -26.496,9.936 -6.14404,-10e-6 -12.19203,-1.248 -18.144,-3.744 l -0.864,2.304 -12.816,0 0,-99.936 m 39.168,45.936 c -1.63205,-0.57595 -3.21605,-0.95995 -4.752,-1.152 -1.53604,-0.28795 -3.79204,-0.43195 -6.768,-0.432 -2.88004,5e-5 -6.33603,0.76805 -10.368,2.304 l 0,37.872 c 4.31997,1.34401 8.11196,2.01601 11.376,2.016 3.35996,1e-5 6.14395,-0.28799 8.352,-0.864 2.30395,-0.57599 4.60795,-1.53599 6.912,-2.88 2.30394,-1.43999 4.12794,-3.55198 5.472,-6.336 1.43994,-2.87998 2.15994,-6.04797 2.16,-9.504 -6e-5,-3.45597 -0.33606,-6.33596 -1.008,-8.64 -0.67206,-2.39996 -1.58406,-4.36796 -2.736,-5.904 -1.15206,-1.53595 -2.44806,-2.83195 -3.888,-3.888 -1.44005,-1.15195 -3.02405,-2.01595 -4.752,-2.592" />
        <path
           inkscape:connector-curvature="0"
           id="path14762"
           style="font-size:144px;font-variant:normal;font-weight:bold;font-stretch:normal;fill:#000000;font-family:Cantarell;-inkscape-font-specification:Cantarell Bold"
           d="m 778.21692,785.13735 c 1.34397,0.48001 3.02396,0.72001 5.04,0.72 2.11196,10e-6 4.89596,-0.52799 8.352,-1.584 l 0,8.928 c -0.19205,0.096 -0.86405,0.384 -2.016,0.864 -1.15204,0.48 -2.20804,0.864 -3.168,1.152 -3.07204,0.864 -7.92003,1.34399 -14.544,1.44 -4.51202,-10e-6 -8.16002,-1.536 -10.944,-4.608 -2.68801,-3.072 -4.03201,-7.05599 -4.032,-11.952 l 0,-84.816 17.28,0 0,80.64 c -3e-5,5.18401 1.34397,8.25601 4.032,9.216" />
        <path
           inkscape:connector-curvature="0"
           id="path14764"
           style="font-size:144px;font-variant:normal;font-weight:bold;font-stretch:normal;fill:#000000;font-family:Cantarell;-inkscape-font-specification:Cantarell Bold"
           d="m 805.90317,728.97735 c 9.02398,-3.07193 17.32797,-4.60793 24.912,-4.608 7.67995,7e-5 13.67995,0.67207 18,2.016 4.41594,1.34406 7.72793,3.26406 9.936,5.76 4.12793,4.51205 6.19193,10.36805 6.192,17.568 l 0,45.504 -12.96,0 -1.872,-4.608 c -6.33605,4.032 -13.44005,6.04799 -21.312,6.048 -10.94403,-10e-6 -19.20002,-3.12 -24.768,-9.36 -2.97601,-3.45599 -4.46401,-7.10399 -4.464,-10.944 -1e-5,-3.55198 0.47999,-6.52798 1.44,-8.928 0.95999,-2.49597 2.54399,-4.51197 4.752,-6.048 2.20798,-1.63197 4.55998,-2.92797 7.056,-3.888 2.49598,-1.05597 5.75997,-1.82396 9.792,-2.304 6.52796,-0.76796 14.87995,-1.15196 25.056,-1.152 l 0,-1.008 c -6e-5,-6.33596 -2.59205,-10.36795 -7.776,-12.096 -2.40005,-0.76795 -5.95204,-1.15195 -10.656,-1.152 -4.70403,5e-5 -11.18403,1.00805 -19.44,3.024 l -2.736,0.864 -3.6,-13.968 2.448,-0.72 m 41.76,48.24 0,-10.08 -1.728,0 c -10.56004,2e-5 -17.90404,0.43202 -22.032,1.296 -4.03203,0.86402 -6.04803,2.97602 -6.048,6.336 -3e-5,2.20801 1.29597,3.93601 3.888,5.184 2.68797,1.24801 6.57596,1.87201 11.664,1.872 5.08795,1e-5 9.83995,-1.53599 14.256,-4.608" />
        <path
           inkscape:connector-curvature="0"
           id="path14766"
           style="font-size:144px;font-variant:normal;font-weight:bold;font-stretch:normal;fill:#000000;font-family:Cantarell;-inkscape-font-specification:Cantarell Bold"
           d="m 883.44717,725.80935 12.096,0 2.304,4.752 c 9.02397,-4.12794 17.18396,-6.19193 24.48,-6.192 11.90394,7e-5 19.58393,4.41606 23.04,13.248 1.72793,4.41605 2.63992,9.93604 2.736,16.56 l 0,41.04 -17.424,0 0,-40.752 c -6e-5,-4.89596 -1.05606,-8.39995 -3.168,-10.512 -2.20805,-2.30395 -5.71205,-3.45595 -10.512,-3.456 -4.70404,5e-5 -10.12803,1.29605 -16.272,3.888 l 0,50.832 -17.28,0 0,-69.408" />
        <path
           inkscape:connector-curvature="0"
           id="path14768"
           style="font-size:144px;font-variant:normal;font-weight:bold;font-stretch:normal;fill:#000000;font-family:Cantarell;-inkscape-font-specification:Cantarell Bold"
           d="m 984.25842,753.60135 29.95198,-29.232 20.736,0 -34.272,31.824 35.424,39.024 -21.312,0 -30.52798,-34.56 0,34.56 -17.28,0 0,-99.936 17.28,0 0,58.32" />
        <path
           inkscape:connector-curvature="0"
           id="path14770"
           style="font-size:144px;font-variant:normal;font-weight:bold;font-stretch:normal;fill:#000000;font-family:Cantarell;-inkscape-font-specification:Cantarell Bold"
           d="m 1044.8239,761.23335 c 0,-11.23196 3.456,-20.15995 10.368,-26.784 6.912,-6.71994 15.792,-10.07993 26.64,-10.08 10.944,7e-5 19.824,3.12006 26.64,9.36 6.9119,6.14405 10.3679,14.78404 10.368,25.92 -10e-5,11.13602 -3.5041,20.11201 -10.512,26.928 -6.912,6.72 -16.32,10.07999 -28.224,10.08 -11.904,-10e-6 -21.216,-4.224 -27.936,-12.672 -4.8,-6.23999 -7.248,-13.82398 -7.344,-22.752 m 53.856,-11.664 c -2.112,-3.35995 -4.704,-5.75995 -7.776,-7.2 -3.072,-1.53595 -6.288,-2.30395 -9.648,-2.304 -3.264,5e-5 -6.336,0.67205 -9.216,2.016 -2.784,1.34405 -5.184,3.55205 -7.2,6.624 -1.92,2.97604 -2.88,6.52804 -2.88,10.656 0,6.14403 1.872,11.28002 5.616,15.408 3.84,4.12801 8.64,6.19201 14.4,6.192 5.856,10e-6 10.608,-1.77599 14.256,-5.328 3.744,-3.64798 5.616,-8.06398 5.616,-13.248 0,-5.27997 -1.056,-9.55196 -3.168,-12.816" />
        <path
           inkscape:connector-curvature="0"
           id="path14772"
           style="font-size:144px;font-variant:normal;font-weight:bold;font-stretch:normal;fill:#000000;font-family:Cantarell;-inkscape-font-specification:Cantarell Bold"
           d="m 1134.8847,725.80935 12.096,0 2.304,4.752 c 9.0239,-4.12794 17.1839,-6.19193 24.48,-6.192 11.9039,7e-5 19.5839,4.41606 23.04,13.248 1.7279,4.41605 2.6399,9.93604 2.736,16.56 l 0,41.04 -17.424,0 0,-40.752 c -10e-5,-4.89596 -1.0561,-8.39995 -3.168,-10.512 -2.2081,-2.30395 -5.7121,-3.45595 -10.512,-3.456 -4.7041,5e-5 -10.1281,1.29605 -16.272,3.888 l 0,50.832 -17.28,0 0,-69.408" />
        <path
           inkscape:connector-curvature="0"
           id="path14774"
           style="font-size:144px;font-variant:normal;font-weight:bold;font-stretch:normal;fill:#000000;font-family:Cantarell;-inkscape-font-specification:Cantarell Bold"
           d="m 1240.5919,785.13735 c 1.344,0.48001 3.024,0.72001 5.04,0.72 2.112,10e-6 4.896,-0.52799 8.352,-1.584 l 0,8.928 c -0.192,0.096 -0.864,0.384 -2.016,0.864 -1.152,0.48 -2.208,0.864 -3.168,1.152 -3.072,0.864 -7.92,1.34399 -14.544,1.44 -4.512,-10e-6 -8.16,-1.536 -10.944,-4.608 -2.688,-3.072 -4.032,-7.05599 -4.032,-11.952 l 0,-84.816 17.28,0 0,80.64 c 0,5.18401 1.344,8.25601 4.032,9.216" />
        <path
           inkscape:connector-curvature="0"
           id="path14776"
           style="font-size:144px;font-variant:normal;font-weight:bold;font-stretch:normal;fill:#000000;font-family:Cantarell;-inkscape-font-specification:Cantarell Bold"
           d="m 1264.1022,695.28135 19.296,0 0,19.008 -19.296,0 0,-19.008 m 1.008,30.528 17.28,0 0,69.408 -17.28,0 0,-69.408" />
        <path
           inkscape:connector-curvature="0"
           id="path14778"
           style="font-size:144px;font-variant:normal;font-weight:bold;font-stretch:normal;fill:#000000;font-family:Cantarell;-inkscape-font-specification:Cantarell Bold"
           d="m 1301.3847,725.80935 12.096,0 2.304,4.752 c 9.0239,-4.12794 17.1839,-6.19193 24.48,-6.192 11.9039,7e-5 19.5839,4.41606 23.04,13.248 1.7279,4.41605 2.6399,9.93604 2.736,16.56 l 0,41.04 -17.424,0 0,-40.752 c -10e-5,-4.89596 -1.0561,-8.39995 -3.168,-10.512 -2.2081,-2.30395 -5.7121,-3.45595 -10.512,-3.456 -4.7041,5e-5 -10.1281,1.29605 -16.272,3.888 l 0,50.832 -17.28,0 0,-69.408" />
        <path
           inkscape:connector-curvature="0"
           id="path14780"
           style="font-size:144px;font-variant:normal;font-weight:bold;font-stretch:normal;fill:#000000;font-family:Cantarell;-inkscape-font-specification:Cantarell Bold"
           d="m 1435.4599,790.46535 c -8.832,4.128 -17.088,6.19199 -24.768,6.192 -12.096,-10e-6 -19.824,-4.416 -23.184,-13.248 -1.728,-4.41599 -2.592,-9.93598 -2.592,-16.56 l 0,-41.04 17.28,0 0,40.896 c 0,4.03202 0.48,6.72002 1.44,8.064 0.96,1.24802 1.92,2.30401 2.88,3.168 2.016,1.72801 5.376,2.59201 10.08,2.592 4.704,10e-6 10.224,-1.29599 16.56,-3.888 l 0,-50.832 17.28,0 0,69.408 -12.816,0 -2.16,-4.752" />
        <path
           inkscape:connector-curvature="0"
           id="path14782"
           style="font-size:144px;font-variant:normal;font-weight:bold;font-stretch:normal;fill:#000000;font-family:Cantarell;-inkscape-font-specification:Cantarell Bold"
           d="m 1463.5309,725.80935 20.448,0 18.864,25.344 18.144,-25.344 19.584,0 -27.936,35.28 26.784,34.128 -20.448,0 -18,-23.904 -17.28,23.904 -19.296,0 26.64,-34.128 -27.504,-35.28" />
        <path
           inkscape:connector-curvature="0"
           id="path14784"
           style="font-size:144px;font-variant:normal;font-weight:bold;font-stretch:normal;fill:#000000;font-family:Cantarell;-inkscape-font-specification:Cantarell Bold"
           d="m 1547.7124,777.50535 20.448,0 0,20.592 -20.448,0 0,-20.592" />
        <path
           inkscape:connector-curvature="0"
           id="path14786"
           style="font-size:144px;font-variant:normal;font-weight:bold;font-stretch:normal;fill:#000000;font-family:Cantarell;-inkscape-font-specification:Cantarell Bold"
           d="m 1581.4489,761.23335 c 0,-11.23196 3.456,-20.15995 10.368,-26.784 6.912,-6.71994 15.792,-10.07993 26.64,-10.08 10.944,7e-5 19.824,3.12006 26.64,9.36 6.9119,6.14405 10.3679,14.78404 10.368,25.92 -10e-5,11.13602 -3.5041,20.11201 -10.512,26.928 -6.912,6.72 -16.32,10.07999 -28.224,10.08 -11.904,-10e-6 -21.216,-4.224 -27.936,-12.672 -4.8,-6.23999 -7.248,-13.82398 -7.344,-22.752 m 53.856,-11.664 c -2.112,-3.35995 -4.704,-5.75995 -7.776,-7.2 -3.072,-1.53595 -6.288,-2.30395 -9.648,-2.304 -3.264,5e-5 -6.336,0.67205 -9.216,2.016 -2.784,1.34405 -5.184,3.55205 -7.2,6.624 -1.92,2.97604 -2.88,6.52804 -2.88,10.656 0,6.14403 1.872,11.28002 5.616,15.408 3.84,4.12801 8.64,6.19201 14.4,6.192 5.856,10e-6 10.608,-1.77599 14.256,-5.328 3.744,-3.64798 5.616,-8.06398 5.616,-13.248 0,-5.27997 -1.056,-9.55196 -3.168,-12.816" />
        <path
           inkscape:connector-curvature="0"
           id="path14788"
           style="font-size:144px;font-variant:normal;font-weight:bold;font-stretch:normal;fill:#000000;font-family:Cantarell;-inkscape-font-specification:Cantarell Bold"
           d="m 1715.1417,741.93735 c -3.1681,-1.24795 -7.1041,-1.87195 -11.808,-1.872 -4.7041,5e-5 -9.5521,1.10405 -14.544,3.312 l 0,51.84 -17.28,0 0,-69.408 11.52,0 2.016,3.6 c 6.7199,-3.35993 13.2959,-5.03993 19.728,-5.04 6.5279,7e-5 11.9039,1.00807 16.128,3.024 l 2.448,1.152 -5.472,14.4 -2.736,-1.008" />
        <path
           inkscape:connector-curvature="0"
           id="path14790"
           style="font-size:144px;font-variant:normal;font-weight:bold;font-stretch:normal;fill:#000000;font-family:Cantarell;-inkscape-font-specification:Cantarell Bold"
           d="m 1731.3687,777.50535 20.448,0 0,20.592 -20.448,0 0,-20.592" />
        <path
           inkscape:connector-curvature="0"
           id="path14792"
           style="font-size:144px;font-variant:normal;font-weight:bold;font-stretch:normal;fill:#000000;font-family:Cantarell;-inkscape-font-specification:Cantarell Bold"
           d="m 1766.9772,695.28135 19.296,0 0,19.008 -19.296,0 0,-19.008 m 1.008,30.528 17.28,0 0,69.408 -17.28,0 0,-69.408" />
        <path
           inkscape:connector-curvature="0"
           id="path14794"
           style="font-size:144px;font-variant:normal;font-weight:bold;font-stretch:normal;fill:#000000;font-family:Cantarell;-inkscape-font-specification:Cantarell Bold"
           d="m 1801.6677,761.66535 c 0,-5.95196 0.912,-11.27996 2.736,-15.984 1.92,-4.79995 4.512,-8.73595 7.776,-11.808 6.8159,-6.33594 15.5519,-9.50393 26.208,-9.504 5.2799,7e-5 10.1759,0.76807 14.688,2.304 l 0,-31.248 17.28,0 0,99.792 -12.672,0 -1.44,-3.168 c -6.3361,3.072 -13.0081,4.60799 -20.016,4.608 -11.2321,-10e-6 -20.0161,-3.552 -26.352,-10.656 -5.472,-6.14399 -8.208,-14.25598 -8.208,-24.336 m 24.624,15.696 c 2.3039,1.44001 4.6079,2.49601 6.912,3.168 2.3039,0.57601 5.1359,0.86401 8.496,0.864 3.3599,10e-6 7.1519,-0.81599 11.376,-2.448 l 0,-37.728 c -4.5121,-1.34395 -8.0641,-2.01595 -10.656,-2.016 -2.4961,5e-5 -4.2241,0.048 -5.184,0.144 -0.9601,0.096 -2.0161,0.28805 -3.168,0.576 -1.1521,0.19205 -2.2561,0.48005 -3.312,0.864 -0.9601,0.28805 -1.9681,0.72005 -3.024,1.296 -0.9601,0.57605 -1.9201,1.24805 -2.88,2.016 -0.8641,0.67205 -1.6801,1.53605 -2.448,2.592 -0.7681,1.05604 -1.3921,2.25604 -1.872,3.6 -1.1521,2.68804 -1.7281,6.04804 -1.728,10.08 -10e-5,3.93603 0.6719,7.39202 2.016,10.368 1.4399,2.97602 3.2639,5.18402 5.472,6.624" />
      </g>
    </g>
    <rect
       style="fill:#ff0000;fill-opacity:1;stroke:none"
       id="rect14823"
       width="2125.9844"
       height="177.16534"
       x="-7.5000004e-05"
       y="875.19476" />
    <rect
       style="fill:#000000;fill-opacity:1;stroke:none"
       id="rect14827"
       width="2125.9844"
       height="88.582603"
       x="0"
       y="-0.00028437501"
       transform="translate(0,-4616.9309)" />
    <rect
       style="fill:#ff0000;fill-opacity:1;stroke:none"
       id="rect14833"
       width="106.29921"
       height="106.29921"
       x="177.16534"
       y="-4439.7661"
       rx="17.716536"
       ry="17.716536" />
    <rect
       ry="17.716536"
       rx="17.716536"
       y="-4439.7661"
       x="305.16534"
       height="106.29921"
       width="106.29921"
       id="rect14837"
       style="fill:#000000;fill-opacity:1;stroke:none" />
    <rect
       ry="17.716536"
       rx="17.716536"
       y="-4313.7661"
       x="177.16534"
       height="106.29921"
       width="106.29921"
       id="rect14839"
       style="fill:#000000;fill-opacity:1;stroke:none" />
    <rect
       style="fill:#ff0000;fill-opacity:1;stroke:none"
       id="rect14841"
       width="106.29921"
       height="106.29921"
       x="305.16534"
       y="-4313.7661"
       rx="17.716536"
       ry="17.716536" />
  </g>
</svg>
