<?xml version="1.0" encoding="UTF-8" standalone="no"?>
<!-- Created with Inkscape (http://www.inkscape.org/) -->

<svg
   xmlns:dc="http://purl.org/dc/elements/1.1/"
   xmlns:cc="http://creativecommons.org/ns#"
   xmlns:rdf="http://www.w3.org/1999/02/22-rdf-syntax-ns#"
   xmlns:svg="http://www.w3.org/2000/svg"
   xmlns="http://www.w3.org/2000/svg"
   xmlns:sodipodi="http://sodipodi.sourceforge.net/DTD/sodipodi-0.dtd"
   xmlns:inkscape="http://www.inkscape.org/namespaces/inkscape"
   width="531.49603"
   height="177.16534"
   id="svg3063"
   version="1.1"
   inkscape:version="0.48.1 r9760"
   sodipodi:docname="sticker-1.svg"
   inkscape:export-filename="/media/60G/Dokumen/publikasi blankon/sticker-1.png"
   inkscape:export-xdpi="100"
   inkscape:export-ydpi="100">
  <defs
     id="defs3065" />
  <sodipodi:namedview
     id="base"
     pagecolor="#ffffff"
     bordercolor="#666666"
     borderopacity="1.0"
     inkscape:pageopacity="0.0"
     inkscape:pageshadow="2"
     inkscape:zoom="1.979899"
     inkscape:cx="283.15606"
     inkscape:cy="79.986765"
     inkscape:document-units="cm"
     inkscape:current-layer="layer1"
     showgrid="false"
     units="cm"
     width="10cm"
     showguides="true"
     inkscape:guide-bbox="true"
     inkscape:window-width="1280"
     inkscape:window-height="763"
     inkscape:window-x="0"
     inkscape:window-y="0"
     inkscape:window-maximized="1">
    <sodipodi:guide
       orientation="1,0"
       position="0,258.59905"
       id="guide3071" />
    <sodipodi:guide
       orientation="1,0"
       position="531.49606,320.21836"
       id="guide3073" />
    <sodipodi:guide
       orientation="0,1"
       position="301.02546,0"
       id="guide3075" />
    <sodipodi:guide
       orientation="0,1"
       position="261.62951,177.16535"
       id="guide3077" />
    <sodipodi:guide
       orientation="1,0"
       position="265.74803,30.809653"
       id="guide3142" />
    <sodipodi:guide
       orientation="0,1"
       position="210.11173,88.582677"
       id="guide3144" />
    <sodipodi:guide
       orientation="1,0"
       position="17.716535,39.901026"
       id="guide3146" />
    <sodipodi:guide
       orientation="1,0"
       position="513.77953,142.93659"
       id="guide3148" />
  </sodipodi:namedview>
  <metadata
     id="metadata3068">
    <rdf:RDF>
      <cc:Work
         rdf:about="">
        <dc:format>image/svg+xml</dc:format>
        <dc:type
           rdf:resource="http://purl.org/dc/dcmitype/StillImage" />
        <dc:title></dc:title>
      </cc:Work>
    </rdf:RDF>
  </metadata>
  <g
     inkscape:label="Layer 1"
     inkscape:groupmode="layer"
     id="layer1"
     transform="translate(0,-875.1955)">
    <rect
       style="fill:#000000;fill-opacity:1;stroke:#000000;stroke-width:0;stroke-linejoin:round;stroke-miterlimit:4;stroke-opacity:1;stroke-dasharray:none"
       id="rect3150"
       width="531.49603"
       height="177.16534"
       x="0"
       y="875.1955" />
    <g
       id="g3161">
      <path
         inkscape:export-ydpi="285.01001"
         inkscape:export-xdpi="285.01001"
         inkscape:export-filename="/home/mdamt/rect4269.png"
         inkscape:connector-curvature="0"
         id="path3497"
         d="m 79.316903,960.98133 c 0,15.07504 -12.220719,27.29576 -27.295791,27.29576 -15.075009,0 -27.295728,-12.22072 -27.295728,-27.29576 0,-15.07502 12.220719,-27.29576 27.295728,-27.29576 15.075072,0 27.295791,12.22074 27.295791,27.29576 z"
         style="fill:none;fill-opacity:1;stroke:#ffffff;stroke-width:14.01769447000000035;stroke-miterlimit:4;stroke-dasharray:none" />
      <path
         inkscape:export-ydpi="285.01001"
         inkscape:export-xdpi="285.01001"
         inkscape:connector-curvature="0"
         id="rect4269"
         d="m 91.546826,933.25985 0.64069,0 0,58.58438 -0.64069,0 z"
         style="fill:#aa0000;fill-opacity:1;stroke:#ff0000;stroke-width:11.40067863;stroke-linecap:round;stroke-linejoin:round;stroke-miterlimit:4;stroke-opacity:1" />
      <path
         inkscape:connector-curvature="0"
         id="path4275"
         style="font-size:75.31466675000000066px;font-style:normal;font-weight:bold;line-height:125%;letter-spacing:0px;word-spacing:0px;fill:#ffffff;fill-opacity:1;stroke:none;font-family:Sans;-inkscape-font-specification:Sans Bold"
         d="m 160.39433,933.43306 -11.43224,0 0,21.51947 c 0.14942,4e-5 0.85927,4e-5 2.12956,0 1.2703,-0.0747 2.46575,-0.11206 3.58663,-0.11206 1.19545,-0.0747 2.80192,-0.18676 4.81943,-0.33623 2.09221,-0.22412 3.69868,-0.44828 4.81942,-0.67249 1.19559,-0.29884 2.54044,-0.74716 4.03501,-1.34498 1.56897,-0.59772 2.72721,-1.30756 3.47442,-2.12953 1.94265,-1.94268 2.91412,-4.33373 2.91412,-7.17316 0,-4.78204 -2.69001,-7.80821 -8.06987,-9.07852 -1.79324,-0.44827 -3.88545,-0.67243 -6.27648,-0.67249 m 0.78456,30.26178 -12.2168,0.67248 0,22.5282 10.984,0 c 4.85677,2e-5 8.25649,-0.22414 10.19929,-0.67247 2.01735,-0.44831 3.73603,-0.934 5.15575,-1.45705 1.41956,-0.59775 2.54044,-1.27023 3.36236,-2.01746 2.09221,-1.79326 3.13824,-4.10959 3.13824,-6.949 0,-3.73599 -1.8681,-6.68744 -5.60399,-8.85437 -3.66132,-2.16686 -8.66766,-3.25031 -15.01885,-3.25033 m -26.00271,-41.91817 28.02021,0 c 7.32252,7e-5 13.00135,1.23297 17.03622,3.69867 3.96015,2.39112 6.61266,5.08105 7.95781,8.06979 1.27015,2.91417 1.86795,5.60411 1.79324,8.06982 0,2.46582 -0.6725,5.00632 -2.0175,7.62148 -1.2703,2.54054 -2.95148,4.67007 -5.04354,6.38859 6.05222,2.46582 10.01237,6.91168 11.88047,13.33761 0.52293,2.01747 0.78455,3.99756 0.78455,5.94026 0,1.86803 -0.22411,3.73606 -0.6725,5.60404 -0.44838,1.86802 -1.45706,3.99756 -3.02618,6.38859 -1.49442,2.31635 -3.43707,4.40853 -5.8281,6.27654 -2.39119,1.79327 -5.75355,3.32505 -10.08723,4.5953 -4.25913,1.19552 -9.15341,1.79328 -14.68269,1.79328 l -26.11476,0 0,-77.78397" />
      <path
         inkscape:connector-curvature="0"
         id="path4279"
         style="font-size:75.31466675000000066px;font-style:normal;font-weight:bold;line-height:125%;letter-spacing:0px;word-spacing:0px;fill:#ffffff;fill-opacity:1;stroke:none;font-family:Sans;-inkscape-font-specification:Sans Bold"
         d="m 224.41702,948.00353 c 7.02369,-2.39099 13.48708,-3.58652 19.39004,-3.58657 5.97751,5e-5 10.64753,0.52309 14.01003,1.56912 3.43707,1.04614 6.01487,2.54056 7.73355,4.48324 3.21295,3.5119 4.81942,8.06984 4.81942,13.67383 l 0,35.41749 -10.08722,0 -1.45707,-3.58659 c -4.93163,3.13826 -10.46091,4.70745 -16.58798,4.70745 -8.51811,0 -14.944,-2.42847 -19.27784,-7.2853 -2.31633,-2.68992 -3.47442,-5.5293 -3.47442,-8.51813 0,-2.76463 0.37353,-5.08096 1.12074,-6.949 0.74721,-1.94271 1.98015,-3.51183 3.69869,-4.70739 1.71853,-1.27021 3.54927,-2.27893 5.49192,-3.02617 1.9428,-0.8219 4.48324,-1.41967 7.62149,-1.7933 5.08104,-0.59772 11.58164,-0.89661 19.50211,-0.89663 l 0,-0.78458 c -1.6e-4,-4.93151 -2.01751,-8.06976 -6.05238,-9.41477 -1.86809,-0.59772 -4.6328,-0.89661 -8.29398,-0.89665 -3.66134,4e-5 -8.70502,0.78462 -15.13092,2.35369 l -2.12957,0.67249 -2.80192,-10.87182 1.90531,-0.56041 m 32.50346,37.54703 0,-7.84565 -1.34501,0 c -8.21929,3e-5 -13.93548,0.33627 -17.14842,1.00872 -3.13825,0.67251 -4.70737,2.31636 -4.70737,4.93156 0,1.71858 1.00868,3.06355 3.02619,4.0349 2.09221,0.97138 5.11839,1.45705 9.07855,1.45705 3.96015,0 7.65884,-1.19552 11.09606,-3.58658" />
      <path
         inkscape:connector-curvature="0"
         id="path4281"
         style="font-size:75.31466675000000066px;font-style:normal;font-weight:bold;line-height:125%;letter-spacing:0px;word-spacing:0px;fill:#ffffff;fill-opacity:1;stroke:none;font-family:Sans;-inkscape-font-specification:Sans Bold"
         d="m 275.84354,945.53776 9.41472,0 1.79324,3.69867 c 7.0237,-3.21293 13.37504,-4.81942 19.05373,-4.81947 9.26531,5e-5 15.24297,3.43719 17.93298,10.31141 1.34486,3.43718 2.05471,7.7336 2.12941,12.88928 l 0,31.94299 -13.56165,0 0,-31.71883 c -1.4e-4,-3.8107 -0.82206,-6.538 -2.46573,-8.18188 -1.71869,-1.79326 -4.44605,-2.68989 -8.18194,-2.68994 -3.66133,5e-5 -7.8831,1.00877 -12.66518,3.02617 l 0,39.56448 -13.44958,0 0,-54.02288" />
      <path
         inkscape:connector-curvature="0"
         id="path4283"
         style="font-size:75.31466675000000066px;font-style:normal;font-weight:bold;line-height:125%;letter-spacing:0px;word-spacing:0px;fill:#ffffff;fill-opacity:1;stroke:none;font-family:Sans;-inkscape-font-specification:Sans Bold"
         d="m 345.37969,967.16933 23.31284,-22.75237 16.1396,0 -26.67521,24.76982 27.57183,30.37386 -16.58798,0 -23.76108,-26.89936 0,26.89936 -13.44974,0 0,-77.78398 13.44974,0 0,45.39267" />
      <path
         inkscape:connector-curvature="0"
         id="path4285"
         style="font-size:75.31466675000000066px;font-style:normal;font-weight:bold;line-height:125%;letter-spacing:0px;word-spacing:0px;fill:#ffffff;fill-opacity:1;stroke:none;font-family:Sans;-inkscape-font-specification:Sans Bold"
         d="m 421.63639,926.94476 c 7.17311,7e-5 13.63635,1.56921 19.3899,4.70739 5.75339,3.0636 10.31134,7.58418 13.67386,13.56176 3.43706,5.97768 5.15559,12.85195 5.15575,20.62284 -1.6e-4,11.95529 -3.66149,21.7063 -10.984,29.25305 -7.24796,7.4721 -16.47593,11.2081 -27.6839,11.2081 -9.93781,0 -18.64283,-3.2504 -26.11476,-9.75105 -3.58663,-3.13824 -6.4634,-7.28522 -8.63017,-12.44096 -2.16692,-5.15568 -3.25045,-10.90916 -3.25045,-17.26042 0,-11.95522 3.62398,-21.59414 10.87194,-28.9168 7.32252,-7.32253 16.51313,-10.98384 27.57183,-10.98391 m 8.18178,14.23424 c -2.83941,-1.04602 -5.75339,-1.56907 -8.74222,-1.56912 -2.91412,5e-5 -5.75354,0.5231 -8.51811,1.56912 -2.76472,1.04615 -5.30516,2.57792 -7.62149,4.5953 -2.31633,2.01752 -4.18442,4.74481 -5.60413,8.18189 -1.34486,3.4372 -2.01736,7.36002 -2.01736,11.76847 0,8.44344 2.35368,15.243 7.06105,20.39868 4.70736,5.08101 10.57296,7.62151 17.59666,7.62149 6.05236,2e-5 11.39488,-2.09215 16.02754,-6.27651 2.31633,-2.09216 4.18427,-4.93154 5.60398,-8.51813 1.41971,-3.58655 2.12956,-7.65881 2.12956,-12.21679 0,-4.63263 -0.7472,-8.74226 -2.24162,-12.32888 -1.41971,-3.58653 -3.36251,-6.4259 -5.8281,-8.51813 -2.39119,-2.09211 -5.00634,-3.66124 -7.84576,-4.70739" />
      <path
         inkscape:connector-curvature="0"
         id="path4287"
         style="font-size:75.31466675000000066px;font-style:normal;font-weight:bold;line-height:125%;letter-spacing:0px;word-spacing:0px;fill:#ffffff;fill-opacity:1;stroke:none;font-family:Sans;-inkscape-font-specification:Sans Bold"
         d="m 463.45532,945.53776 9.41488,0 1.79323,3.69867 c 7.0237,-3.21293 13.37487,-4.81942 19.05375,-4.81947 9.26531,5e-5 15.24295,3.43719 17.93278,10.31141 1.34505,3.43718 2.05486,7.7336 2.12957,12.88928 l 0,31.94299 -13.56177,0 0,-31.71883 c 0,-3.8107 -0.8219,-6.538 -2.46577,-8.18188 -1.71852,-1.79326 -4.44586,-2.68989 -8.18178,-2.68994 -3.66131,5e-5 -7.88308,1.00877 -12.66516,3.02617 l 0,39.56448 -13.44973,0 0,-54.02288" />
      <rect
         ry="1.7777838"
         y="921.7196"
         x="200.16628"
         height="78.222481"
         width="14.902435"
         id="rect2999"
         style="fill:#ffffff;fill-opacity:1;stroke:none" />
    </g>
    <g
       style="font-size:10px;font-style:normal;font-weight:normal;line-height:125%;letter-spacing:0px;word-spacing:0px;fill:#ffffff;fill-opacity:1;stroke:none;font-family:Sans"
       id="text3001"
       transform="matrix(0.84956366,0,0,0.84956366,131.65167,154.55294)">
      <path
         d="m 53.573012,1026.0534 1.7,0 2.62,8.08 2.58,-8.08 1.58,0 2.48,8.08 2.62,-8.08 1.7,0 -3.52,9.64 -1.62,0 -2.52,-7.82 -2.58,7.82 -1.52,0 -3.52,-9.64"
         style="font-size:20px;font-variant:normal;font-stretch:normal;fill:#ffffff;font-family:Cantarell;-inkscape-font-specification:Cantarell"
         id="path3006"
         inkscape:connector-curvature="0" />
      <path
         d="m 69.901137,1026.0534 1.7,0 2.62,8.08 2.58,-8.08 1.58,0 2.48,8.08 2.62,-8.08 1.7,0 -3.52,9.64 -1.62,0 -2.52,-7.82 -2.58,7.82 -1.52,0 -3.52,-9.64"
         style="font-size:20px;font-variant:normal;font-stretch:normal;fill:#ffffff;font-family:Cantarell;-inkscape-font-specification:Cantarell"
         id="path3008"
         inkscape:connector-curvature="0" />
      <path
         d="m 86.229262,1026.0534 1.7,0 2.62,8.08 2.58,-8.08 1.58,0 2.48,8.08 2.62,-8.08 1.699998,0 -3.519998,9.64 -1.62,0 -2.52,-7.82 -2.58,7.82 -1.52,0 -3.52,-9.64"
         style="font-size:20px;font-variant:normal;font-stretch:normal;fill:#ffffff;font-family:Cantarell;-inkscape-font-specification:Cantarell"
         id="path3010"
         inkscape:connector-curvature="0" />
      <path
         d="m 103.77739,1033.6334 2.04,0 0,2.06 -2.04,0 0,-2.06"
         style="font-size:20px;font-variant:normal;font-stretch:normal;fill:#ffffff;font-family:Cantarell;-inkscape-font-specification:Cantarell"
         id="path3012"
         inkscape:connector-curvature="0" />
      <path
         d="m 112.70426,1034.5134 c 1.01333,0 1.78666,-0.3267 2.32,-0.98 0.53333,-0.6534 0.79999,-1.5534 0.8,-2.7 -10e-6,-1.1467 -0.28001,-2.0534 -0.84,-2.72 -0.54667,-0.68 -1.31334,-1.02 -2.3,-1.02 -0.72,0 -1.44,0.1533 -2.16,0.46 l 0,6.36 c 0.72,0.4 1.44666,0.6 2.18,0.6 m -2.18,-8.24 c 0.73333,-0.3067 1.50666,-0.46 2.32,-0.46 1.33333,0 2.44666,0.4466 3.34,1.34 0.89333,0.88 1.33999,2.1533 1.34,3.82 -1e-5,2.0133 -0.67334,3.44 -2.02,4.28 -0.66667,0.4133 -1.48,0.62 -2.44,0.62 -0.94667,0 -1.86,-0.2867 -2.74,-0.86 l -0.28,0.68 -1.18,0 0,-13.42 1.66,0 0,4"
         style="font-size:20px;font-variant:normal;font-stretch:normal;fill:#ffffff;font-family:Cantarell;-inkscape-font-specification:Cantarell"
         id="path3014"
         inkscape:connector-curvature="0" />
      <path
         d="m 121.85895,1034.2934 c 0.18666,0.067 0.42666,0.1 0.72,0.1 0.29333,0 0.68,-0.073 1.16,-0.22 l 0,1.24 c -0.04,0.013 -0.14667,0.053 -0.32,0.12 -0.17334,0.067 -0.32,0.12 -0.44,0.16 -0.37334,0.1333 -0.82,0.2 -1.34,0.2 -0.52,0 -0.97334,-0.2067 -1.36,-0.62 -0.37333,-0.4267 -0.56,-0.9867 -0.56,-1.68 l 0,-11.32 1.6,0 0,10.74 c -0.0133,0.72 0.16666,1.1466 0.54,1.28"
         style="font-size:20px;font-variant:normal;font-stretch:normal;fill:#ffffff;font-family:Cantarell;-inkscape-font-specification:Cantarell"
         id="path3016"
         inkscape:connector-curvature="0" />
      <path
         d="m 125.35239,1026.5134 c 1.03999,-0.4 2.11999,-0.6 3.24,-0.6 1.13332,0 1.96666,0.18 2.5,0.54 0.54666,0.36 0.90666,0.7666 1.08,1.22 0.17332,0.44 0.25999,1.0266 0.26,1.76 l 0,6.26 -1.22,0 -0.36,-0.9 c -0.89334,0.76 -1.88001,1.14 -2.96,1.14 -0.10667,0 -0.21334,-0.01 -0.32,-0.02 -0.69334,-0.04 -1.33334,-0.2934 -1.92,-0.76 -0.57334,-0.4667 -0.86,-1.08 -0.86,-1.84 0,-0.7734 0.22666,-1.4067 0.68,-1.9 0.45333,-0.4667 1.01333,-0.7934 1.68,-0.98 0.95999,-0.24 2.17333,-0.38 3.64,-0.42 l 0,-0.08 c -1e-5,-0.68 -0.06,-1.18 -0.18,-1.5 -0.28001,-0.76 -1.01334,-1.14 -2.2,-1.14 -0.58667,0 -1.29334,0.093 -2.12,0.28 -0.58667,0.1466 -0.9,0.2266 -0.94,0.24 l 0,-1.3 m 5.44,7 0,-2.3 c -1.30667,0.04 -2.16001,0.1 -2.56,0.18 -0.76001,0.1733 -1.30001,0.5133 -1.62,1.02 -0.14667,0.24 -0.21334,0.4733 -0.2,0.7 -1e-5,0.28 0.1,0.5533 0.3,0.82 0.14666,0.2133 0.38666,0.4 0.72,0.56 0.18666,0.093 0.43333,0.14 0.74,0.14 0.23999,0 0.49333,-0.027 0.76,-0.08 0.66666,-0.12 1.28666,-0.4667 1.86,-1.04"
         style="font-size:20px;font-variant:normal;font-stretch:normal;fill:#ffffff;font-family:Cantarell;-inkscape-font-specification:Cantarell"
         id="path3018"
         inkscape:connector-curvature="0" />
      <path
         d="m 141.83707,1029.5534 c 0,-0.8267 -0.16,-1.42 -0.48,-1.78 -0.32,-0.36 -0.95334,-0.54 -1.9,-0.54 -0.94667,0 -1.92,0.2333 -2.92,0.7 l 0,7.76 -1.64,0 0,-9.6 1.14,0 0.32,0.72 c 1.21333,-0.64 2.43333,-0.96 3.66,-0.96 2.29333,0 3.44,1.1 3.44,3.3 l 0,6.54 -1.62,0 0,-6.14"
         style="font-size:20px;font-variant:normal;font-stretch:normal;fill:#ffffff;font-family:Cantarell;-inkscape-font-specification:Cantarell"
         id="path3020"
         inkscape:connector-curvature="0" />
      <path
         d="m 146.03364,1022.2534 1.6,0 0,13.44 -1.6,0 0,-13.44 m 6.02,3.6 1.76,0 -4.2,4.34 4.46,5.5 -1.92,0 -4.36,-5.34 4.26,-4.5"
         style="font-size:20px;font-variant:normal;font-stretch:normal;fill:#ffffff;font-family:Cantarell;-inkscape-font-specification:Cantarell"
         id="path3022"
         inkscape:connector-curvature="0" />
      <path
         d="m 162.49176,1033.5934 c 0.53333,-0.6667 0.79999,-1.5667 0.8,-2.7 -1e-5,-1.1334 -0.27334,-2.0334 -0.82,-2.7 -0.53334,-0.68 -1.25334,-1.02 -2.16,-1.02 -0.90667,0 -1.63333,0.3466 -2.18,1.04 -0.53333,0.68 -0.8,1.5733 -0.8,2.68 0,1.1066 0.26667,2 0.8,2.68 0.54667,0.68 1.27333,1.02 2.18,1.02 0.92,0 1.64666,-0.3334 2.18,-1 m -2.2,2.3 c -1.44,0 -2.57333,-0.44 -3.4,-1.32 -0.81333,-0.88 -1.22,-2.1 -1.22,-3.66 0,-1.5734 0.41333,-2.8 1.24,-3.68 0.84,-0.8934 1.98,-1.34 3.42,-1.34 1.45333,0 2.58666,0.44 3.4,1.32 0.81333,0.8666 1.21999,2.0866 1.22,3.66 -1e-5,1.56 -0.42001,2.7866 -1.26,3.68 -0.82667,0.8933 -1.96,1.34 -3.4,1.34"
         style="font-size:20px;font-variant:normal;font-stretch:normal;fill:#ffffff;font-family:Cantarell;-inkscape-font-specification:Cantarell"
         id="path3024"
         inkscape:connector-curvature="0" />
      <path
         d="m 174.25895,1029.5534 c -1e-5,-0.8267 -0.16001,-1.42 -0.48,-1.78 -0.32001,-0.36 -0.95334,-0.54 -1.9,-0.54 -0.94667,0 -1.92,0.2333 -2.92,0.7 l 0,7.76 -1.64,0 0,-9.6 1.14,0 0.32,0.72 c 1.21333,-0.64 2.43333,-0.96 3.66,-0.96 2.29332,0 3.43999,1.1 3.44,3.3 l 0,6.54 -1.62,0 0,-6.14"
         style="font-size:20px;font-variant:normal;font-stretch:normal;fill:#ffffff;font-family:Cantarell;-inkscape-font-specification:Cantarell"
         id="path3026"
         inkscape:connector-curvature="0" />
      <path
         d="m 180.33551,1034.2934 c 0.18667,0.067 0.42667,0.1 0.72,0.1 0.29333,0 0.68,-0.073 1.16,-0.22 l 0,1.24 c -0.04,0.013 -0.14667,0.053 -0.32,0.12 -0.17334,0.067 -0.32,0.12 -0.44,0.16 -0.37333,0.1333 -0.82,0.2 -1.34,0.2 -0.52,0 -0.97333,-0.2067 -1.36,-0.62 -0.37333,-0.4267 -0.56,-0.9867 -0.56,-1.68 l 0,-11.32 1.6,0 0,10.74 c -0.0133,0.72 0.16667,1.1466 0.54,1.28"
         style="font-size:20px;font-variant:normal;font-stretch:normal;fill:#ffffff;font-family:Cantarell;-inkscape-font-specification:Cantarell"
         id="path3028"
         inkscape:connector-curvature="0" />
      <path
         d="m 183.56895,1026.0334 1.64,0 0,9.66 -1.64,0 0,-9.66 m 0,-3.72 1.64,0 0,1.66 -1.64,0 0,-1.66"
         style="font-size:20px;font-variant:normal;font-stretch:normal;fill:#ffffff;font-family:Cantarell;-inkscape-font-specification:Cantarell"
         id="path3030"
         inkscape:connector-curvature="0" />
      <path
         d="m 194.53239,1029.5534 c -1e-5,-0.8267 -0.16001,-1.42 -0.48,-1.78 -0.32001,-0.36 -0.95334,-0.54 -1.9,-0.54 -0.94667,0 -1.92001,0.2333 -2.92,0.7 l 0,7.76 -1.64,0 0,-9.6 1.14,0 0.32,0.72 c 1.21333,-0.64 2.43333,-0.96 3.66,-0.96 2.29332,0 3.43999,1.1 3.44,3.3 l 0,6.54 -1.62,0 0,-6.14"
         style="font-size:20px;font-variant:normal;font-stretch:normal;fill:#ffffff;font-family:Cantarell;-inkscape-font-specification:Cantarell"
         id="path3032"
         inkscape:connector-curvature="0" />
      <path
         d="m 200.66895,1034.0134 c 0.30666,0.36 0.83333,0.54 1.58,0.54 0.74666,0 1.61999,-0.2334 2.62,-0.7 l 0,-7.76 1.64,0 0,9.6 -1.14,0 -0.32,-0.72 c -1.22667,0.64 -2.34001,0.96 -3.34,0.96 -1.02667,0 -1.80667,-0.2934 -2.34,-0.88 -0.53333,-0.5867 -0.8,-1.3934 -0.8,-2.42 l 0,-6.54 1.62,0 0,6.14 c 0,0.8266 0.16,1.42 0.48,1.78"
         style="font-size:20px;font-variant:normal;font-stretch:normal;fill:#ffffff;font-family:Cantarell;-inkscape-font-specification:Cantarell"
         id="path3034"
         inkscape:connector-curvature="0" />
      <path
         d="m 215.63864,1026.0534 1.72,0 -3.56,4.92 3.36,4.72 -1.86,0 -2.58,-3.62 -2.46,3.62 -1.7,0 3.38,-4.74 -3.5,-4.9 1.86,0 2.72,3.82 2.62,-3.82"
         style="font-size:20px;font-variant:normal;font-stretch:normal;fill:#ffffff;font-family:Cantarell;-inkscape-font-specification:Cantarell"
         id="path3036"
         inkscape:connector-curvature="0" />
      <path
         d="m 219.79301,1033.6334 2.04,0 0,2.06 -2.04,0 0,-2.06"
         style="font-size:20px;font-variant:normal;font-stretch:normal;fill:#ffffff;font-family:Cantarell;-inkscape-font-specification:Cantarell"
         id="path3038"
         inkscape:connector-curvature="0" />
      <path
         d="m 231.31989,1033.5934 c 0.53332,-0.6667 0.79999,-1.5667 0.8,-2.7 -1e-5,-1.1334 -0.27334,-2.0334 -0.82,-2.7 -0.53334,-0.68 -1.25334,-1.02 -2.16,-1.02 -0.90667,0 -1.63334,0.3466 -2.18,1.04 -0.53334,0.68 -0.80001,1.5733 -0.8,2.68 -1e-5,1.1066 0.26666,2 0.8,2.68 0.54666,0.68 1.27333,1.02 2.18,1.02 0.91999,0 1.64666,-0.3334 2.18,-1 m -2.2,2.3 c -1.44001,0 -2.57334,-0.44 -3.4,-1.32 -0.81334,-0.88 -1.22,-2.1 -1.22,-3.66 0,-1.5734 0.41333,-2.8 1.24,-3.68 0.83999,-0.8934 1.97999,-1.34 3.42,-1.34 1.45332,0 2.58666,0.44 3.4,1.32 0.81332,0.8666 1.21999,2.0866 1.22,3.66 -1e-5,1.56 -0.42001,2.7866 -1.26,3.68 -0.82668,0.8933 -1.96001,1.34 -3.4,1.34"
         style="font-size:20px;font-variant:normal;font-stretch:normal;fill:#ffffff;font-family:Cantarell;-inkscape-font-specification:Cantarell"
         id="path3040"
         inkscape:connector-curvature="0" />
      <path
         d="m 237.90707,1026.0734 0.32,0.8 c 0.85333,-0.6534 1.74667,-0.98 2.68,-0.98 0.45333,0 0.89333,0.06 1.32,0.18 l 0,1.58 -0.2,0 c -0.53333,-0.2134 -1.02,-0.32 -1.46,-0.32 -0.76,0 -1.49333,0.2333 -2.2,0.7 l 0,7.66 -1.66,0 0,-9.62 1.2,0"
         style="font-size:20px;font-variant:normal;font-stretch:normal;fill:#ffffff;font-family:Cantarell;-inkscape-font-specification:Cantarell"
         id="path3042"
         inkscape:connector-curvature="0" />
      <path
         d="m 244.51957,1033.6334 2.04,0 0,2.06 -2.04,0 0,-2.06"
         style="font-size:20px;font-variant:normal;font-stretch:normal;fill:#ffffff;font-family:Cantarell;-inkscape-font-specification:Cantarell"
         id="path3044"
         inkscape:connector-curvature="0" />
      <path
         d="m 249.50645,1026.0334 1.64,0 0,9.66 -1.64,0 0,-9.66 m 0,-3.72 1.64,0 0,1.66 -1.64,0 0,-1.66"
         style="font-size:20px;font-variant:normal;font-stretch:normal;fill:#ffffff;font-family:Cantarell;-inkscape-font-specification:Cantarell"
         id="path3046"
         inkscape:connector-curvature="0" />
      <path
         d="m 258.26989,1034.5134 c 0.73332,0 1.45999,-0.2 2.18,-0.6 l 0,-6.36 c -0.72001,-0.3067 -1.44001,-0.46 -2.16,-0.46 -0.98667,0 -1.76001,0.34 -2.32,1.02 -0.54667,0.6666 -0.82001,1.5733 -0.82,2.72 -1e-5,1.1466 0.26666,2.0466 0.8,2.7 0.53333,0.6533 1.30666,0.98 2.32,0.98 m 2.18,-8.24 0,-4 1.66,0 0,13.42 -1.18,0 -0.28,-0.68 c -0.88001,0.5733 -1.80001,0.86 -2.76,0.86 -0.94667,0 -1.75334,-0.2067 -2.42,-0.62 -1.34667,-0.84 -2.02,-2.2667 -2.02,-4.28 0,-1.6667 0.44666,-2.94 1.34,-3.82 0.89333,-0.8934 2.00666,-1.34 3.34,-1.34 0.81332,0 1.58666,0.1533 2.32,0.46"
         style="font-size:20px;font-variant:normal;font-stretch:normal;fill:#ffffff;font-family:Cantarell;-inkscape-font-specification:Cantarell"
         id="path3048"
         inkscape:connector-curvature="0" />
    </g>
  </g>
</svg>
