<?xml version="1.0" encoding="UTF-8" standalone="no"?>
<!-- Created with Inkscape (http://www.inkscape.org/) -->

<svg
   xmlns:dc="http://purl.org/dc/elements/1.1/"
   xmlns:cc="http://creativecommons.org/ns#"
   xmlns:rdf="http://www.w3.org/1999/02/22-rdf-syntax-ns#"
   xmlns:svg="http://www.w3.org/2000/svg"
   xmlns="http://www.w3.org/2000/svg"
   xmlns:sodipodi="http://sodipodi.sourceforge.net/DTD/sodipodi-0.dtd"
   xmlns:inkscape="http://www.inkscape.org/namespaces/inkscape"
   width="744.09448"
   height="1052.3622"
   id="svg12487"
   version="1.1"
   inkscape:version="0.48.1 r9760"
   sodipodi:docname="pin.svg"
   inkscape:export-filename="/media/60G/Dokumen/publikasi blankon/pin.png"
   inkscape:export-xdpi="50"
   inkscape:export-ydpi="50">
  <defs
     id="defs12489">
    <linearGradient
       id="linearGradient3171">
      <stop
         id="stop3173"
         offset="0"
         style="stop-color:#44aa00;stop-opacity:1;" />
      <stop
         id="stop3175"
         offset="1"
         style="stop-color:#a5ff68;stop-opacity:1;" />
    </linearGradient>
    <linearGradient
       id="linearGradient3179">
      <stop
         id="stop3181"
         offset="0"
         style="stop-color:#b3b3b3;stop-opacity:1;" />
      <stop
         id="stop3183"
         offset="1"
         style="stop-color:#898989;stop-opacity:1;" />
    </linearGradient>
    <linearGradient
       id="linearGradient12537">
      <stop
         id="stop12539"
         offset="0"
         style="stop-color:#b3b3b3;stop-opacity:1;" />
      <stop
         id="stop12541"
         offset="1"
         style="stop-color:#898989;stop-opacity:1;" />
    </linearGradient>
    <linearGradient
       id="linearGradient3163">
      <stop
         id="stop3165"
         offset="0"
         style="stop-color:#008000;stop-opacity:1;" />
      <stop
         id="stop3167"
         offset="1"
         style="stop-color:#009400;stop-opacity:1;" />
    </linearGradient>
    <inkscape:path-effect
       vertical="false"
       scale_y_rel="false"
       is_visible="true"
       bendpath-nodetypes="cc"
       prop_scale="1"
       bendpath="M 1063.89,87.7228 C 1180.05,-2.89799 1342.07,-34.6856 1483.46,110.39"
       id="path-effect6129"
       effect="bend_path" />
    <inkscape:path-effect
       vertical="false"
       scale_y_rel="false"
       is_visible="true"
       bendpath-nodetypes="cc"
       prop_scale="1"
       bendpath="m 1002.67,387.088 c -28.88,-89.901 1.6,-202.513 64.06,-264.074"
       id="path-effect6135"
       effect="bend_path" />
    <inkscape:path-effect
       vertical="false"
       scale_y_rel="false"
       is_visible="true"
       bendpath-nodetypes="cc"
       prop_scale="1"
       bendpath="m 1500.7,127.986 c 90.01,118.82 77.29,225.451 26.8,330.613"
       id="path-effect6140"
       effect="bend_path" />
    <inkscape:path-effect
       vertical="false"
       scale_y_rel="false"
       is_visible="true"
       bendpath-nodetypes="cc"
       prop_scale="1"
       bendpath="M 1500.52,490.385 C 1419.84,598.67 1339.14,617.536 1244.3,619.109"
       id="path-effect5061"
       effect="bend_path" />
    <inkscape:path-effect
       vertical="false"
       scale_y_rel="false"
       is_visible="true"
       bendpath-nodetypes="cc"
       prop_scale="1"
       bendpath="M 1199.446,601.62976 C 1142.0721,585.9612 1029.9627,544.97418 987.09192,416.15646"
       id="path-effect5069"
       effect="bend_path" />
    <inkscape:path-effect
       vertical="false"
       scale_y_rel="false"
       is_visible="true"
       bendpath-nodetypes="cc"
       prop_scale="1"
       bendpath="m 1399.52,611.399 c -35.74,14.099 -71.61,27.822 -111.88,28.375"
       id="path-effect5072"
       effect="bend_path" />
    <inkscape:path-effect
       vertical="false"
       scale_y_rel="false"
       is_visible="true"
       bendpath-nodetypes="cc"
       prop_scale="1"
       bendpath="m 1578.53,382.043 c -9.52,31.553 -21.52,63.727 -41.42,97.873"
       id="path-effect5079"
       effect="bend_path" />
    <inkscape:path-effect
       vertical="false"
       scale_y_rel="false"
       is_visible="true"
       bendpath-nodetypes="cc"
       prop_scale="1"
       bendpath="m 1441.9,35.9245 c 35.32,17.6125 54.35,41.7449 77.45,64.2465"
       id="path-effect5086"
       effect="bend_path" />
    <inkscape:path-effect
       vertical="false"
       scale_y_rel="false"
       is_visible="true"
       bendpath-nodetypes="cc"
       prop_scale="1"
       bendpath="m 970.184,152.724 c 10.2,-26.069 29.49,-47.59 49.966,-68.5114"
       id="path-effect5093"
       effect="bend_path" />
  </defs>
  <sodipodi:namedview
     id="base"
     pagecolor="#ffffff"
     bordercolor="#666666"
     borderopacity="1.0"
     inkscape:pageopacity="0.0"
     inkscape:pageshadow="2"
     inkscape:zoom="0.49497475"
     inkscape:cx="24.710535"
     inkscape:cy="475.66213"
     inkscape:document-units="cm"
     inkscape:current-layer="layer1"
     showgrid="false"
     units="cm"
     inkscape:window-width="1280"
     inkscape:window-height="763"
     inkscape:window-x="0"
     inkscape:window-y="0"
     inkscape:window-maximized="1"
     showguides="true"
     inkscape:guide-bbox="true" />
  <metadata
     id="metadata12492">
    <rdf:RDF>
      <cc:Work
         rdf:about="">
        <dc:format>image/svg+xml</dc:format>
        <dc:type
           rdf:resource="http://purl.org/dc/dcmitype/StillImage" />
        <dc:title></dc:title>
      </cc:Work>
    </rdf:RDF>
  </metadata>
  <g
     inkscape:label="Layer 1"
     inkscape:groupmode="layer"
     id="layer1"
     transform="translate(0,0.00130762)">
    <g
       id="g13555">
      <path
         sodipodi:type="arc"
         style="fill:#000000;fill-opacity:1;stroke:none"
         id="path6313"
         sodipodi:cx="181.82745"
         sodipodi:cy="761.43823"
         sodipodi:rx="147.48227"
         sodipodi:ry="147.48227"
         d="m 329.30972,761.43823 a 147.48227,147.48227 0 1 1 -294.964536,0 147.48227,147.48227 0 1 1 294.964536,0 z"
         transform="matrix(0.7017271,0,0,0.7017271,-1.878966,-407.67525)" />
      <g
         transform="matrix(1.7678675,0,0,1.7678675,-158.67861,299.18279)"
         id="g13551">
        <path
           style="fill:none;stroke:#ffffff;stroke-width:14.01769447;stroke-miterlimit:4;stroke-dasharray:none"
           d="m 182.85458,-97.09517 c 0,15.07504 -12.22072,27.29576 -27.29579,27.29576 -15.07501,0 -27.29573,-12.22072 -27.29573,-27.29576 0,-15.07502 12.22072,-27.29576 27.29573,-27.29576 15.07507,0 27.29579,12.22074 27.29579,27.29576 z"
           id="path3497"
           inkscape:connector-curvature="0"
           inkscape:export-filename="/home/mdamt/rect4269.png"
           inkscape:export-xdpi="285.01001"
           inkscape:export-ydpi="285.01001" />
        <path
           style="fill:#aa0000;fill-opacity:1;stroke:#ff0000;stroke-width:11.40067863;stroke-linecap:round;stroke-linejoin:round;stroke-miterlimit:4;stroke-opacity:1"
           d="m 195.08451,-124.81665 0.64069,0 0,58.58438 -0.64069,0 z"
           id="rect4269"
           inkscape:connector-curvature="0"
           inkscape:export-xdpi="285.01001"
           inkscape:export-ydpi="285.01001" />
      </g>
    </g>
    <g
       id="g13601"
       transform="translate(2,0)">
      <path
         transform="matrix(0.7017271,0,0,0.7017271,232.12103,-407.67525)"
         d="m 329.30972,761.43823 c 0,81.45221 -66.03006,147.48227 -147.48227,147.48227 -81.4522,0 -147.482266,-66.03006 -147.482266,-147.48227 0,-81.45221 66.030066,-147.48227 147.482266,-147.48227 81.45221,0 147.48227,66.03006 147.48227,147.48227 z"
         sodipodi:ry="147.48227"
         sodipodi:rx="147.48227"
         sodipodi:cy="761.43823"
         sodipodi:cx="181.82745"
         id="path13578"
         style="fill:#ffffff;fill-opacity:1;stroke:#000000;stroke-width:1.42505538;stroke-miterlimit:4;stroke-dasharray:none"
         sodipodi:type="arc" />
      <path
         style="fill:none;stroke:#000000;stroke-width:24.78142738;stroke-miterlimit:4;stroke-dasharray:none"
         d="m 398.58406,127.53139 c 0,26.65068 -21.60461,48.25529 -48.25534,48.25529 -26.65062,0 -48.25523,-21.60461 -48.25523,-48.25529 0,-26.65063 21.60461,-48.255282 48.25523,-48.255282 26.65073,0 48.25534,21.604652 48.25534,48.255282 z"
         id="path13582"
         inkscape:connector-curvature="0"
         inkscape:export-filename="/home/mdamt/rect4269.png"
         inkscape:export-xdpi="285.01001"
         inkscape:export-ydpi="285.01001" />
      <path
         style="fill:#aa0000;fill-opacity:1;stroke:#ff0000;stroke-width:20.15489006;stroke-linecap:round;stroke-linejoin:round;stroke-miterlimit:4;stroke-opacity:1"
         d="m 420.20495,78.523491 1.13266,0 0,103.569419 -1.13266,0 z"
         id="path13584"
         inkscape:connector-curvature="0"
         inkscape:export-xdpi="285.01001"
         inkscape:export-ydpi="285.01001" />
    </g>
    <g
       id="g13631">
      <path
         transform="matrix(0.7017271,0,0,0.7017271,-1.878966,-159.67525)"
         d="m 329.30972,761.43823 c 0,81.45221 -66.03006,147.48227 -147.48227,147.48227 -81.4522,0 -147.482266,-66.03006 -147.482266,-147.48227 0,-81.45221 66.030066,-147.48227 147.482266,-147.48227 81.45221,0 147.48227,66.03006 147.48227,147.48227 z"
         sodipodi:ry="147.48227"
         sodipodi:rx="147.48227"
         sodipodi:cy="761.43823"
         sodipodi:cx="181.82745"
         id="path13608"
         style="fill:#000000;fill-opacity:1;stroke:none"
         sodipodi:type="arc" />
      <g
         id="g13610"
         transform="matrix(1.3259006,0,0,1.3259006,-89.08827,488.42968)">
        <path
           inkscape:export-ydpi="285.01001"
           inkscape:export-xdpi="285.01001"
           inkscape:export-filename="/home/mdamt/rect4269.png"
           inkscape:connector-curvature="0"
           id="path13612"
           d="m 182.85458,-97.09517 c 0,15.07504 -12.22072,27.29576 -27.29579,27.29576 -15.07501,0 -27.29573,-12.22072 -27.29573,-27.29576 0,-15.07502 12.22072,-27.29576 27.29573,-27.29576 15.07507,0 27.29579,12.22074 27.29579,27.29576 z"
           style="fill:none;stroke:#ffffff;stroke-width:14.01769447;stroke-miterlimit:4;stroke-dasharray:none" />
        <path
           inkscape:export-ydpi="285.01001"
           inkscape:export-xdpi="285.01001"
           inkscape:connector-curvature="0"
           id="path13614"
           d="m 195.08451,-124.81665 0.64069,0 0,58.58438 -0.64069,0 z"
           style="fill:#aa0000;fill-opacity:1;stroke:#ff0000;stroke-width:11.40067863;stroke-linecap:round;stroke-linejoin:round;stroke-miterlimit:4;stroke-opacity:1" />
      </g>
      <g
         style="fill:#ffffff"
         transform="matrix(0.26137214,0,0,0.26137214,18.824176,452.66872)"
         id="g13592">
        <path
           d="m 263.93201,-124.64344 -11.43224,0 0,21.51947 c 0.14942,4e-5 0.85927,4e-5 2.12956,0 1.2703,-0.0747 2.46575,-0.11206 3.58663,-0.11206 1.19545,-0.0747 2.80192,-0.18676 4.81943,-0.33623 2.09221,-0.22412 3.69868,-0.44828 4.81942,-0.67249 1.19559,-0.29884 2.54044,-0.74716 4.03501,-1.34498 1.56897,-0.59772 2.72721,-1.30756 3.47442,-2.12953 1.94265,-1.94268 2.91412,-4.33373 2.91412,-7.17316 0,-4.78204 -2.69001,-7.80821 -8.06987,-9.07852 -1.79324,-0.44827 -3.88545,-0.67243 -6.27648,-0.67249 m 0.78456,30.26178 -12.2168,0.67248 0,22.5282 10.984,0 c 4.85677,2e-5 8.25649,-0.22414 10.19929,-0.67247 2.01735,-0.44831 3.73603,-0.934 5.15575,-1.45705 1.41956,-0.59775 2.54044,-1.27023 3.36236,-2.01746 2.09221,-1.79326 3.13824,-4.10959 3.13824,-6.949 0,-3.73599 -1.8681,-6.68744 -5.60399,-8.85437 -3.66132,-2.16686 -8.66766,-3.25031 -15.01885,-3.25033 m -26.00271,-41.91817 28.02021,0 c 7.32252,7e-5 13.00135,1.23297 17.03622,3.69867 3.96015,2.39112 6.61266,5.08105 7.95781,8.06979 1.27015,2.91417 1.86795,5.60411 1.79324,8.06982 0,2.46582 -0.6725,5.00632 -2.0175,7.62148 -1.2703,2.54054 -2.95148,4.67007 -5.04354,6.38859 6.05222,2.46582 10.01237,6.91168 11.88047,13.33761 0.52293,2.01747 0.78455,3.99756 0.78455,5.94026 0,1.86803 -0.22411,3.73606 -0.6725,5.60404 -0.44838,1.86802 -1.45706,3.99756 -3.02618,6.38859 -1.49442,2.31635 -3.43707,4.40853 -5.8281,6.27654 -2.39119,1.79327 -5.75355,3.32505 -10.08723,4.5953 -4.25913,1.19552 -9.15341,1.79328 -14.68269,1.79328 l -26.11476,0 0,-77.78397"
           style="font-size:75.31466675px;font-style:normal;font-weight:bold;line-height:125%;letter-spacing:0px;word-spacing:0px;fill:#ffffff;fill-opacity:1;stroke:none;font-family:Sans;-inkscape-font-specification:Sans Bold"
           id="path4275"
           inkscape:connector-curvature="0" />
        <path
           d="m 327.9547,-110.07297 c 7.02369,-2.39099 13.48708,-3.58652 19.39004,-3.58657 5.97751,5e-5 10.64753,0.52309 14.01003,1.56912 3.43707,1.04614 6.01487,2.54056 7.73355,4.48324 3.21295,3.5119 4.81942,8.06984 4.81942,13.67383 l 0,35.41749 -10.08722,0 -1.45707,-3.58659 c -4.93163,3.13826 -10.46091,4.70745 -16.58798,4.70745 -8.51811,0 -14.944,-2.42847 -19.27784,-7.2853 -2.31633,-2.68992 -3.47442,-5.5293 -3.47442,-8.51813 0,-2.76463 0.37353,-5.08096 1.12074,-6.949 0.74721,-1.94271 1.98015,-3.51183 3.69869,-4.70739 1.71853,-1.27021 3.54927,-2.27893 5.49192,-3.02617 1.9428,-0.8219 4.48324,-1.41967 7.62149,-1.7933 5.08104,-0.59772 11.58164,-0.89661 19.50211,-0.89663 l 0,-0.78458 c -1.6e-4,-4.93151 -2.01751,-8.06976 -6.05238,-9.41477 -1.86809,-0.59772 -4.6328,-0.89661 -8.29398,-0.89665 -3.66134,4e-5 -8.70502,0.78462 -15.13092,2.35369 l -2.12957,0.67249 -2.80192,-10.87182 1.90531,-0.56041 m 32.50346,37.54703 0,-7.84565 -1.34501,0 c -8.21929,3e-5 -13.93548,0.33627 -17.14842,1.00872 -3.13825,0.67251 -4.70737,2.31636 -4.70737,4.93156 0,1.71858 1.00868,3.06355 3.02619,4.0349 2.09221,0.97138 5.11839,1.45705 9.07855,1.45705 3.96015,0 7.65884,-1.19552 11.09606,-3.58658"
           style="font-size:75.31466675px;font-style:normal;font-weight:bold;line-height:125%;letter-spacing:0px;word-spacing:0px;fill:#ffffff;fill-opacity:1;stroke:none;font-family:Sans;-inkscape-font-specification:Sans Bold"
           id="path4279"
           inkscape:connector-curvature="0" />
        <path
           d="m 379.38122,-112.53874 9.41472,0 1.79324,3.69867 c 7.0237,-3.21293 13.37504,-4.81942 19.05373,-4.81947 9.26531,5e-5 15.24297,3.43719 17.93298,10.31141 1.34486,3.43718 2.05471,7.7336 2.12941,12.88928 l 0,31.94299 -13.56165,0 0,-31.71883 c -1.4e-4,-3.8107 -0.82206,-6.538 -2.46573,-8.18188 -1.71869,-1.79326 -4.44605,-2.68989 -8.18194,-2.68994 -3.66133,5e-5 -7.8831,1.00877 -12.66518,3.02617 l 0,39.56448 -13.44958,0 0,-54.02288"
           style="font-size:75.31466675px;font-style:normal;font-weight:bold;line-height:125%;letter-spacing:0px;word-spacing:0px;fill:#ffffff;fill-opacity:1;stroke:none;font-family:Sans;-inkscape-font-specification:Sans Bold"
           id="path4281"
           inkscape:connector-curvature="0" />
        <path
           d="m 448.91737,-90.90717 23.31284,-22.75237 16.1396,0 -26.67521,24.76982 27.57183,30.37386 -16.58798,0 -23.76108,-26.89936 0,26.89936 -13.44974,0 0,-77.78398 13.44974,0 0,45.39267"
           style="font-size:75.31466675px;font-style:normal;font-weight:bold;line-height:125%;letter-spacing:0px;word-spacing:0px;fill:#ffffff;fill-opacity:1;stroke:none;font-family:Sans;-inkscape-font-specification:Sans Bold"
           id="path4283"
           inkscape:connector-curvature="0" />
        <path
           d="m 525.17407,-131.13174 c 7.17311,7e-5 13.63635,1.56921 19.3899,4.70739 5.75339,3.0636 10.31134,7.58418 13.67386,13.56176 3.43706,5.97768 5.15559,12.85195 5.15575,20.62284 -1.6e-4,11.95529 -3.66149,21.7063 -10.984,29.25305 -7.24796,7.4721 -16.47593,11.2081 -27.6839,11.2081 -9.93781,0 -18.64283,-3.2504 -26.11476,-9.75105 -3.58663,-3.13824 -6.4634,-7.28522 -8.63017,-12.44096 -2.16692,-5.15568 -3.25045,-10.90916 -3.25045,-17.26042 0,-11.95522 3.62398,-21.59414 10.87194,-28.9168 7.32252,-7.32253 16.51313,-10.98384 27.57183,-10.98391 m 8.18178,14.23424 c -2.83941,-1.04602 -5.75339,-1.56907 -8.74222,-1.56912 -2.91412,5e-5 -5.75354,0.5231 -8.51811,1.56912 -2.76472,1.04615 -5.30516,2.57792 -7.62149,4.5953 -2.31633,2.01752 -4.18442,4.74481 -5.60413,8.18189 -1.34486,3.4372 -2.01736,7.36002 -2.01736,11.76847 0,8.44344 2.35368,15.243 7.06105,20.39868 4.70736,5.08101 10.57296,7.62151 17.59666,7.62149 6.05236,2e-5 11.39488,-2.09215 16.02754,-6.27651 2.31633,-2.09216 4.18427,-4.93154 5.60398,-8.51813 1.41971,-3.58655 2.12956,-7.65881 2.12956,-12.21679 0,-4.63263 -0.7472,-8.74226 -2.24162,-12.32888 -1.41971,-3.58653 -3.36251,-6.4259 -5.8281,-8.51813 -2.39119,-2.09211 -5.00634,-3.66124 -7.84576,-4.70739"
           style="font-size:75.31466675px;font-style:normal;font-weight:bold;line-height:125%;letter-spacing:0px;word-spacing:0px;fill:#ffffff;fill-opacity:1;stroke:none;font-family:Sans;-inkscape-font-specification:Sans Bold"
           id="path4285"
           inkscape:connector-curvature="0" />
        <path
           d="m 566.993,-112.53874 9.41488,0 1.79323,3.69867 c 7.0237,-3.21293 13.37487,-4.81942 19.05375,-4.81947 9.26531,5e-5 15.24295,3.43719 17.93278,10.31141 1.34505,3.43718 2.05486,7.7336 2.12957,12.88928 l 0,31.94299 -13.56177,0 0,-31.71883 c 0,-3.8107 -0.8219,-6.538 -2.46577,-8.18188 -1.71852,-1.79326 -4.44586,-2.68989 -8.18178,-2.68994 -3.66131,5e-5 -7.88308,1.00877 -12.66516,3.02617 l 0,39.56448 -13.44973,0 0,-54.02288"
           style="font-size:75.31466675px;font-style:normal;font-weight:bold;line-height:125%;letter-spacing:0px;word-spacing:0px;fill:#ffffff;fill-opacity:1;stroke:none;font-family:Sans;-inkscape-font-specification:Sans Bold"
           id="path4287"
           inkscape:connector-curvature="0" />
        <rect
           style="fill:#ffffff;fill-opacity:1;stroke:none"
           id="rect2999"
           width="14.902435"
           height="78.222481"
           x="303.70395"
           y="-136.3569"
           ry="1.7777838" />
      </g>
    </g>
    <g
       id="g13685">
      <path
         sodipodi:type="arc"
         style="fill:#ffffff;fill-opacity:1;stroke:#000000;stroke-width:1.42505538;stroke-miterlimit:4;stroke-dasharray:none"
         id="path13647"
         sodipodi:cx="181.82745"
         sodipodi:cy="761.43823"
         sodipodi:rx="147.48227"
         sodipodi:ry="147.48227"
         d="m 329.30972,761.43823 c 0,81.45221 -66.03006,147.48227 -147.48227,147.48227 -81.4522,0 -147.482266,-66.03006 -147.482266,-147.48227 0,-81.45221 66.030066,-147.48227 147.482266,-147.48227 81.45221,0 147.48227,66.03006 147.48227,147.48227 z"
         transform="matrix(0.7017271,0,0,0.7017271,234.12103,-159.67525)" />
      <path
         inkscape:export-ydpi="285.01001"
         inkscape:export-xdpi="285.01001"
         inkscape:export-filename="/home/mdamt/rect4269.png"
         inkscape:connector-curvature="0"
         id="path13651"
         d="m 389.35873,359.69114 c 0,19.988 -16.20346,36.19146 -36.19151,36.19146 -19.98796,0 -36.19142,-16.20346 -36.19142,-36.19146 0,-19.98798 16.20346,-36.19147 36.19142,-36.19147 19.98805,0 36.19151,16.20349 36.19151,36.19147 z"
         style="fill:none;stroke:#000000;stroke-width:18.58606911;stroke-miterlimit:4;stroke-dasharray:none" />
      <path
         inkscape:export-ydpi="285.01001"
         inkscape:export-xdpi="285.01001"
         inkscape:connector-curvature="0"
         id="path13653"
         d="m 405.5744,322.93521 0.84949,0 0,77.67706 -0.84949,0 z"
         style="fill:#aa0000;fill-opacity:1;stroke:#ff0000;stroke-width:15.11616707;stroke-linecap:round;stroke-linejoin:round;stroke-miterlimit:4;stroke-opacity:1" />
      <g
         id="g13655"
         transform="matrix(0.26137214,0,0,0.26137214,254.82418,452.66872)"
         style="fill:#000000">
        <path
           inkscape:connector-curvature="0"
           id="path13657"
           style="font-size:75.31466675px;font-style:normal;font-weight:bold;line-height:125%;letter-spacing:0px;word-spacing:0px;fill:#000000;fill-opacity:1;stroke:none;font-family:Sans;-inkscape-font-specification:Sans Bold"
           d="m 263.93201,-124.64344 -11.43224,0 0,21.51947 c 0.14942,4e-5 0.85927,4e-5 2.12956,0 1.2703,-0.0747 2.46575,-0.11206 3.58663,-0.11206 1.19545,-0.0747 2.80192,-0.18676 4.81943,-0.33623 2.09221,-0.22412 3.69868,-0.44828 4.81942,-0.67249 1.19559,-0.29884 2.54044,-0.74716 4.03501,-1.34498 1.56897,-0.59772 2.72721,-1.30756 3.47442,-2.12953 1.94265,-1.94268 2.91412,-4.33373 2.91412,-7.17316 0,-4.78204 -2.69001,-7.80821 -8.06987,-9.07852 -1.79324,-0.44827 -3.88545,-0.67243 -6.27648,-0.67249 m 0.78456,30.26178 -12.2168,0.67248 0,22.5282 10.984,0 c 4.85677,2e-5 8.25649,-0.22414 10.19929,-0.67247 2.01735,-0.44831 3.73603,-0.934 5.15575,-1.45705 1.41956,-0.59775 2.54044,-1.27023 3.36236,-2.01746 2.09221,-1.79326 3.13824,-4.10959 3.13824,-6.949 0,-3.73599 -1.8681,-6.68744 -5.60399,-8.85437 -3.66132,-2.16686 -8.66766,-3.25031 -15.01885,-3.25033 m -26.00271,-41.91817 28.02021,0 c 7.32252,7e-5 13.00135,1.23297 17.03622,3.69867 3.96015,2.39112 6.61266,5.08105 7.95781,8.06979 1.27015,2.91417 1.86795,5.60411 1.79324,8.06982 0,2.46582 -0.6725,5.00632 -2.0175,7.62148 -1.2703,2.54054 -2.95148,4.67007 -5.04354,6.38859 6.05222,2.46582 10.01237,6.91168 11.88047,13.33761 0.52293,2.01747 0.78455,3.99756 0.78455,5.94026 0,1.86803 -0.22411,3.73606 -0.6725,5.60404 -0.44838,1.86802 -1.45706,3.99756 -3.02618,6.38859 -1.49442,2.31635 -3.43707,4.40853 -5.8281,6.27654 -2.39119,1.79327 -5.75355,3.32505 -10.08723,4.5953 -4.25913,1.19552 -9.15341,1.79328 -14.68269,1.79328 l -26.11476,0 0,-77.78397" />
        <path
           inkscape:connector-curvature="0"
           id="path13659"
           style="font-size:75.31466675px;font-style:normal;font-weight:bold;line-height:125%;letter-spacing:0px;word-spacing:0px;fill:#000000;fill-opacity:1;stroke:none;font-family:Sans;-inkscape-font-specification:Sans Bold"
           d="m 327.9547,-110.07297 c 7.02369,-2.39099 13.48708,-3.58652 19.39004,-3.58657 5.97751,5e-5 10.64753,0.52309 14.01003,1.56912 3.43707,1.04614 6.01487,2.54056 7.73355,4.48324 3.21295,3.5119 4.81942,8.06984 4.81942,13.67383 l 0,35.41749 -10.08722,0 -1.45707,-3.58659 c -4.93163,3.13826 -10.46091,4.70745 -16.58798,4.70745 -8.51811,0 -14.944,-2.42847 -19.27784,-7.2853 -2.31633,-2.68992 -3.47442,-5.5293 -3.47442,-8.51813 0,-2.76463 0.37353,-5.08096 1.12074,-6.949 0.74721,-1.94271 1.98015,-3.51183 3.69869,-4.70739 1.71853,-1.27021 3.54927,-2.27893 5.49192,-3.02617 1.9428,-0.8219 4.48324,-1.41967 7.62149,-1.7933 5.08104,-0.59772 11.58164,-0.89661 19.50211,-0.89663 l 0,-0.78458 c -1.6e-4,-4.93151 -2.01751,-8.06976 -6.05238,-9.41477 -1.86809,-0.59772 -4.6328,-0.89661 -8.29398,-0.89665 -3.66134,4e-5 -8.70502,0.78462 -15.13092,2.35369 l -2.12957,0.67249 -2.80192,-10.87182 1.90531,-0.56041 m 32.50346,37.54703 0,-7.84565 -1.34501,0 c -8.21929,3e-5 -13.93548,0.33627 -17.14842,1.00872 -3.13825,0.67251 -4.70737,2.31636 -4.70737,4.93156 0,1.71858 1.00868,3.06355 3.02619,4.0349 2.09221,0.97138 5.11839,1.45705 9.07855,1.45705 3.96015,0 7.65884,-1.19552 11.09606,-3.58658" />
        <path
           inkscape:connector-curvature="0"
           id="path13661"
           style="font-size:75.31466675px;font-style:normal;font-weight:bold;line-height:125%;letter-spacing:0px;word-spacing:0px;fill:#000000;fill-opacity:1;stroke:none;font-family:Sans;-inkscape-font-specification:Sans Bold"
           d="m 379.38122,-112.53874 9.41472,0 1.79324,3.69867 c 7.0237,-3.21293 13.37504,-4.81942 19.05373,-4.81947 9.26531,5e-5 15.24297,3.43719 17.93298,10.31141 1.34486,3.43718 2.05471,7.7336 2.12941,12.88928 l 0,31.94299 -13.56165,0 0,-31.71883 c -1.4e-4,-3.8107 -0.82206,-6.538 -2.46573,-8.18188 -1.71869,-1.79326 -4.44605,-2.68989 -8.18194,-2.68994 -3.66133,5e-5 -7.8831,1.00877 -12.66518,3.02617 l 0,39.56448 -13.44958,0 0,-54.02288" />
        <path
           inkscape:connector-curvature="0"
           id="path13663"
           style="font-size:75.31466675px;font-style:normal;font-weight:bold;line-height:125%;letter-spacing:0px;word-spacing:0px;fill:#000000;fill-opacity:1;stroke:none;font-family:Sans;-inkscape-font-specification:Sans Bold"
           d="m 448.91737,-90.90717 23.31284,-22.75237 16.1396,0 -26.67521,24.76982 27.57183,30.37386 -16.58798,0 -23.76108,-26.89936 0,26.89936 -13.44974,0 0,-77.78398 13.44974,0 0,45.39267" />
        <path
           inkscape:connector-curvature="0"
           id="path13665"
           style="font-size:75.31466675px;font-style:normal;font-weight:bold;line-height:125%;letter-spacing:0px;word-spacing:0px;fill:#000000;fill-opacity:1;stroke:none;font-family:Sans;-inkscape-font-specification:Sans Bold"
           d="m 525.17407,-131.13174 c 7.17311,7e-5 13.63635,1.56921 19.3899,4.70739 5.75339,3.0636 10.31134,7.58418 13.67386,13.56176 3.43706,5.97768 5.15559,12.85195 5.15575,20.62284 -1.6e-4,11.95529 -3.66149,21.7063 -10.984,29.25305 -7.24796,7.4721 -16.47593,11.2081 -27.6839,11.2081 -9.93781,0 -18.64283,-3.2504 -26.11476,-9.75105 -3.58663,-3.13824 -6.4634,-7.28522 -8.63017,-12.44096 -2.16692,-5.15568 -3.25045,-10.90916 -3.25045,-17.26042 0,-11.95522 3.62398,-21.59414 10.87194,-28.9168 7.32252,-7.32253 16.51313,-10.98384 27.57183,-10.98391 m 8.18178,14.23424 c -2.83941,-1.04602 -5.75339,-1.56907 -8.74222,-1.56912 -2.91412,5e-5 -5.75354,0.5231 -8.51811,1.56912 -2.76472,1.04615 -5.30516,2.57792 -7.62149,4.5953 -2.31633,2.01752 -4.18442,4.74481 -5.60413,8.18189 -1.34486,3.4372 -2.01736,7.36002 -2.01736,11.76847 0,8.44344 2.35368,15.243 7.06105,20.39868 4.70736,5.08101 10.57296,7.62151 17.59666,7.62149 6.05236,2e-5 11.39488,-2.09215 16.02754,-6.27651 2.31633,-2.09216 4.18427,-4.93154 5.60398,-8.51813 1.41971,-3.58655 2.12956,-7.65881 2.12956,-12.21679 0,-4.63263 -0.7472,-8.74226 -2.24162,-12.32888 -1.41971,-3.58653 -3.36251,-6.4259 -5.8281,-8.51813 -2.39119,-2.09211 -5.00634,-3.66124 -7.84576,-4.70739" />
        <path
           inkscape:connector-curvature="0"
           id="path13667"
           style="font-size:75.31466675px;font-style:normal;font-weight:bold;line-height:125%;letter-spacing:0px;word-spacing:0px;fill:#000000;fill-opacity:1;stroke:none;font-family:Sans;-inkscape-font-specification:Sans Bold"
           d="m 566.993,-112.53874 9.41488,0 1.79323,3.69867 c 7.0237,-3.21293 13.37487,-4.81942 19.05375,-4.81947 9.26531,5e-5 15.24295,3.43719 17.93278,10.31141 1.34505,3.43718 2.05486,7.7336 2.12957,12.88928 l 0,31.94299 -13.56177,0 0,-31.71883 c 0,-3.8107 -0.8219,-6.538 -2.46577,-8.18188 -1.71852,-1.79326 -4.44586,-2.68989 -8.18178,-2.68994 -3.66131,5e-5 -7.88308,1.00877 -12.66516,3.02617 l 0,39.56448 -13.44973,0 0,-54.02288" />
        <rect
           ry="1.7777838"
           y="-136.3569"
           x="303.70395"
           height="78.222481"
           width="14.902435"
           id="rect13669"
           style="fill:#000000;fill-opacity:1;stroke:none" />
      </g>
    </g>
    <g
       id="g13796">
      <path
         transform="matrix(0.7017271,0,0,0.7017271,-1.878966,86.32475)"
         d="m 329.30972,761.43823 a 147.48227,147.48227 0 1 1 -294.964536,0 147.48227,147.48227 0 1 1 294.964536,0 z"
         sodipodi:ry="147.48227"
         sodipodi:rx="147.48227"
         sodipodi:cy="761.43823"
         sodipodi:cx="181.82745"
         id="path13700"
         style="fill:#000000;fill-opacity:1;stroke:#ff0000;stroke-width:7.12527705;stroke-miterlimit:4;stroke-dasharray:none"
         sodipodi:type="arc" />
      <g
         id="g13702"
         transform="matrix(1.7678675,0,0,1.7678675,-158.67861,793.18279)">
        <path
           inkscape:export-ydpi="285.01001"
           inkscape:export-xdpi="285.01001"
           inkscape:export-filename="/home/mdamt/rect4269.png"
           inkscape:connector-curvature="0"
           id="path13704"
           d="m 182.85458,-97.09517 c 0,15.07504 -12.22072,27.29576 -27.29579,27.29576 -15.07501,0 -27.29573,-12.22072 -27.29573,-27.29576 0,-15.07502 12.22072,-27.29576 27.29573,-27.29576 15.07507,0 27.29579,12.22074 27.29579,27.29576 z"
           style="fill:none;stroke:#ffffff;stroke-width:14.01769447;stroke-miterlimit:4;stroke-dasharray:none" />
        <path
           inkscape:export-ydpi="285.01001"
           inkscape:export-xdpi="285.01001"
           inkscape:connector-curvature="0"
           id="path13706"
           d="m 195.08451,-124.81665 0.64069,0 0,58.58438 -0.64069,0 z"
           style="fill:#aa0000;fill-opacity:1;stroke:#ff0000;stroke-width:11.40067863;stroke-linecap:round;stroke-linejoin:round;stroke-miterlimit:4;stroke-opacity:1" />
      </g>
    </g>
    <g
       id="g13802">
      <path
         sodipodi:type="arc"
         style="fill:#ffffff;fill-opacity:1;stroke:#ff0000;stroke-width:7.12527705000000022;stroke-miterlimit:4;stroke-dasharray:none"
         id="path13710"
         sodipodi:cx="181.82745"
         sodipodi:cy="761.43823"
         sodipodi:rx="147.48227"
         sodipodi:ry="147.48227"
         d="m 329.30972,761.43823 a 147.48227,147.48227 0 1 1 -294.964536,0 147.48227,147.48227 0 1 1 294.964536,0 z"
         transform="matrix(0.7017271,0,0,0.7017271,234.12103,86.32475)" />
      <path
         inkscape:export-ydpi="285.01001"
         inkscape:export-xdpi="285.01001"
         inkscape:export-filename="/home/mdamt/rect4269.png"
         inkscape:connector-curvature="0"
         id="path13712"
         d="m 400.58406,621.53139 c 0,26.65068 -21.60461,48.25529 -48.25534,48.25529 -26.65062,0 -48.25523,-21.60461 -48.25523,-48.25529 0,-26.65063 21.60461,-48.25528 48.25523,-48.25528 26.65073,0 48.25534,21.60465 48.25534,48.25528 z"
         style="fill:none;stroke:#000000;stroke-width:24.78142738;stroke-miterlimit:4;stroke-dasharray:none" />
      <path
         inkscape:export-ydpi="285.01001"
         inkscape:export-xdpi="285.01001"
         inkscape:connector-curvature="0"
         id="path13714"
         d="m 422.20495,572.52349 1.13266,0 0,103.56942 -1.13266,0 z"
         style="fill:#aa0000;fill-opacity:1;stroke:#ff0000;stroke-width:20.15489006;stroke-linecap:round;stroke-linejoin:round;stroke-miterlimit:4;stroke-opacity:1" />
    </g>
    <g
       id="g13807">
      <path
         sodipodi:type="arc"
         style="fill:#000000;fill-opacity:1;stroke:#ff0000;stroke-width:7.12527705000000022;stroke-miterlimit:4;stroke-dasharray:none"
         id="path13718"
         sodipodi:cx="181.82745"
         sodipodi:cy="761.43823"
         sodipodi:rx="147.48227"
         sodipodi:ry="147.48227"
         d="m 329.30972,761.43823 a 147.48227,147.48227 0 1 1 -294.964536,0 147.48227,147.48227 0 1 1 294.964536,0 z"
         transform="matrix(0.7017271,0,0,0.7017271,-1.878966,334.32475)" />
      <g
         transform="matrix(1.3259006,0,0,1.3259006,-89.08827,982.42968)"
         id="g13720">
        <path
           style="fill:none;stroke:#ffffff;stroke-width:14.01769447;stroke-miterlimit:4;stroke-dasharray:none"
           d="m 182.85458,-97.09517 c 0,15.07504 -12.22072,27.29576 -27.29579,27.29576 -15.07501,0 -27.29573,-12.22072 -27.29573,-27.29576 0,-15.07502 12.22072,-27.29576 27.29573,-27.29576 15.07507,0 27.29579,12.22074 27.29579,27.29576 z"
           id="path13722"
           inkscape:connector-curvature="0"
           inkscape:export-filename="/home/mdamt/rect4269.png"
           inkscape:export-xdpi="285.01001"
           inkscape:export-ydpi="285.01001" />
        <path
           style="fill:#aa0000;fill-opacity:1;stroke:#ff0000;stroke-width:11.40067863;stroke-linecap:round;stroke-linejoin:round;stroke-miterlimit:4;stroke-opacity:1"
           d="m 195.08451,-124.81665 0.64069,0 0,58.58438 -0.64069,0 z"
           id="path13724"
           inkscape:connector-curvature="0"
           inkscape:export-xdpi="285.01001"
           inkscape:export-ydpi="285.01001" />
      </g>
      <g
         id="g13726"
         transform="matrix(0.26137214,0,0,0.26137214,18.824176,946.66872)"
         style="fill:#ffffff">
        <path
           inkscape:connector-curvature="0"
           id="path13728"
           style="font-size:75.31466675px;font-style:normal;font-weight:bold;line-height:125%;letter-spacing:0px;word-spacing:0px;fill:#ffffff;fill-opacity:1;stroke:none;font-family:Sans;-inkscape-font-specification:Sans Bold"
           d="m 263.93201,-124.64344 -11.43224,0 0,21.51947 c 0.14942,4e-5 0.85927,4e-5 2.12956,0 1.2703,-0.0747 2.46575,-0.11206 3.58663,-0.11206 1.19545,-0.0747 2.80192,-0.18676 4.81943,-0.33623 2.09221,-0.22412 3.69868,-0.44828 4.81942,-0.67249 1.19559,-0.29884 2.54044,-0.74716 4.03501,-1.34498 1.56897,-0.59772 2.72721,-1.30756 3.47442,-2.12953 1.94265,-1.94268 2.91412,-4.33373 2.91412,-7.17316 0,-4.78204 -2.69001,-7.80821 -8.06987,-9.07852 -1.79324,-0.44827 -3.88545,-0.67243 -6.27648,-0.67249 m 0.78456,30.26178 -12.2168,0.67248 0,22.5282 10.984,0 c 4.85677,2e-5 8.25649,-0.22414 10.19929,-0.67247 2.01735,-0.44831 3.73603,-0.934 5.15575,-1.45705 1.41956,-0.59775 2.54044,-1.27023 3.36236,-2.01746 2.09221,-1.79326 3.13824,-4.10959 3.13824,-6.949 0,-3.73599 -1.8681,-6.68744 -5.60399,-8.85437 -3.66132,-2.16686 -8.66766,-3.25031 -15.01885,-3.25033 m -26.00271,-41.91817 28.02021,0 c 7.32252,7e-5 13.00135,1.23297 17.03622,3.69867 3.96015,2.39112 6.61266,5.08105 7.95781,8.06979 1.27015,2.91417 1.86795,5.60411 1.79324,8.06982 0,2.46582 -0.6725,5.00632 -2.0175,7.62148 -1.2703,2.54054 -2.95148,4.67007 -5.04354,6.38859 6.05222,2.46582 10.01237,6.91168 11.88047,13.33761 0.52293,2.01747 0.78455,3.99756 0.78455,5.94026 0,1.86803 -0.22411,3.73606 -0.6725,5.60404 -0.44838,1.86802 -1.45706,3.99756 -3.02618,6.38859 -1.49442,2.31635 -3.43707,4.40853 -5.8281,6.27654 -2.39119,1.79327 -5.75355,3.32505 -10.08723,4.5953 -4.25913,1.19552 -9.15341,1.79328 -14.68269,1.79328 l -26.11476,0 0,-77.78397" />
        <path
           inkscape:connector-curvature="0"
           id="path13730"
           style="font-size:75.31466675px;font-style:normal;font-weight:bold;line-height:125%;letter-spacing:0px;word-spacing:0px;fill:#ffffff;fill-opacity:1;stroke:none;font-family:Sans;-inkscape-font-specification:Sans Bold"
           d="m 327.9547,-110.07297 c 7.02369,-2.39099 13.48708,-3.58652 19.39004,-3.58657 5.97751,5e-5 10.64753,0.52309 14.01003,1.56912 3.43707,1.04614 6.01487,2.54056 7.73355,4.48324 3.21295,3.5119 4.81942,8.06984 4.81942,13.67383 l 0,35.41749 -10.08722,0 -1.45707,-3.58659 c -4.93163,3.13826 -10.46091,4.70745 -16.58798,4.70745 -8.51811,0 -14.944,-2.42847 -19.27784,-7.2853 -2.31633,-2.68992 -3.47442,-5.5293 -3.47442,-8.51813 0,-2.76463 0.37353,-5.08096 1.12074,-6.949 0.74721,-1.94271 1.98015,-3.51183 3.69869,-4.70739 1.71853,-1.27021 3.54927,-2.27893 5.49192,-3.02617 1.9428,-0.8219 4.48324,-1.41967 7.62149,-1.7933 5.08104,-0.59772 11.58164,-0.89661 19.50211,-0.89663 l 0,-0.78458 c -1.6e-4,-4.93151 -2.01751,-8.06976 -6.05238,-9.41477 -1.86809,-0.59772 -4.6328,-0.89661 -8.29398,-0.89665 -3.66134,4e-5 -8.70502,0.78462 -15.13092,2.35369 l -2.12957,0.67249 -2.80192,-10.87182 1.90531,-0.56041 m 32.50346,37.54703 0,-7.84565 -1.34501,0 c -8.21929,3e-5 -13.93548,0.33627 -17.14842,1.00872 -3.13825,0.67251 -4.70737,2.31636 -4.70737,4.93156 0,1.71858 1.00868,3.06355 3.02619,4.0349 2.09221,0.97138 5.11839,1.45705 9.07855,1.45705 3.96015,0 7.65884,-1.19552 11.09606,-3.58658" />
        <path
           inkscape:connector-curvature="0"
           id="path13732"
           style="font-size:75.31466675px;font-style:normal;font-weight:bold;line-height:125%;letter-spacing:0px;word-spacing:0px;fill:#ffffff;fill-opacity:1;stroke:none;font-family:Sans;-inkscape-font-specification:Sans Bold"
           d="m 379.38122,-112.53874 9.41472,0 1.79324,3.69867 c 7.0237,-3.21293 13.37504,-4.81942 19.05373,-4.81947 9.26531,5e-5 15.24297,3.43719 17.93298,10.31141 1.34486,3.43718 2.05471,7.7336 2.12941,12.88928 l 0,31.94299 -13.56165,0 0,-31.71883 c -1.4e-4,-3.8107 -0.82206,-6.538 -2.46573,-8.18188 -1.71869,-1.79326 -4.44605,-2.68989 -8.18194,-2.68994 -3.66133,5e-5 -7.8831,1.00877 -12.66518,3.02617 l 0,39.56448 -13.44958,0 0,-54.02288" />
        <path
           inkscape:connector-curvature="0"
           id="path13734"
           style="font-size:75.31466675px;font-style:normal;font-weight:bold;line-height:125%;letter-spacing:0px;word-spacing:0px;fill:#ffffff;fill-opacity:1;stroke:none;font-family:Sans;-inkscape-font-specification:Sans Bold"
           d="m 448.91737,-90.90717 23.31284,-22.75237 16.1396,0 -26.67521,24.76982 27.57183,30.37386 -16.58798,0 -23.76108,-26.89936 0,26.89936 -13.44974,0 0,-77.78398 13.44974,0 0,45.39267" />
        <path
           inkscape:connector-curvature="0"
           id="path13736"
           style="font-size:75.31466675px;font-style:normal;font-weight:bold;line-height:125%;letter-spacing:0px;word-spacing:0px;fill:#ffffff;fill-opacity:1;stroke:none;font-family:Sans;-inkscape-font-specification:Sans Bold"
           d="m 525.17407,-131.13174 c 7.17311,7e-5 13.63635,1.56921 19.3899,4.70739 5.75339,3.0636 10.31134,7.58418 13.67386,13.56176 3.43706,5.97768 5.15559,12.85195 5.15575,20.62284 -1.6e-4,11.95529 -3.66149,21.7063 -10.984,29.25305 -7.24796,7.4721 -16.47593,11.2081 -27.6839,11.2081 -9.93781,0 -18.64283,-3.2504 -26.11476,-9.75105 -3.58663,-3.13824 -6.4634,-7.28522 -8.63017,-12.44096 -2.16692,-5.15568 -3.25045,-10.90916 -3.25045,-17.26042 0,-11.95522 3.62398,-21.59414 10.87194,-28.9168 7.32252,-7.32253 16.51313,-10.98384 27.57183,-10.98391 m 8.18178,14.23424 c -2.83941,-1.04602 -5.75339,-1.56907 -8.74222,-1.56912 -2.91412,5e-5 -5.75354,0.5231 -8.51811,1.56912 -2.76472,1.04615 -5.30516,2.57792 -7.62149,4.5953 -2.31633,2.01752 -4.18442,4.74481 -5.60413,8.18189 -1.34486,3.4372 -2.01736,7.36002 -2.01736,11.76847 0,8.44344 2.35368,15.243 7.06105,20.39868 4.70736,5.08101 10.57296,7.62151 17.59666,7.62149 6.05236,2e-5 11.39488,-2.09215 16.02754,-6.27651 2.31633,-2.09216 4.18427,-4.93154 5.60398,-8.51813 1.41971,-3.58655 2.12956,-7.65881 2.12956,-12.21679 0,-4.63263 -0.7472,-8.74226 -2.24162,-12.32888 -1.41971,-3.58653 -3.36251,-6.4259 -5.8281,-8.51813 -2.39119,-2.09211 -5.00634,-3.66124 -7.84576,-4.70739" />
        <path
           inkscape:connector-curvature="0"
           id="path13738"
           style="font-size:75.31466675px;font-style:normal;font-weight:bold;line-height:125%;letter-spacing:0px;word-spacing:0px;fill:#ffffff;fill-opacity:1;stroke:none;font-family:Sans;-inkscape-font-specification:Sans Bold"
           d="m 566.993,-112.53874 9.41488,0 1.79323,3.69867 c 7.0237,-3.21293 13.37487,-4.81942 19.05375,-4.81947 9.26531,5e-5 15.24295,3.43719 17.93278,10.31141 1.34505,3.43718 2.05486,7.7336 2.12957,12.88928 l 0,31.94299 -13.56177,0 0,-31.71883 c 0,-3.8107 -0.8219,-6.538 -2.46577,-8.18188 -1.71852,-1.79326 -4.44586,-2.68989 -8.18178,-2.68994 -3.66131,5e-5 -7.88308,1.00877 -12.66516,3.02617 l 0,39.56448 -13.44973,0 0,-54.02288" />
        <rect
           ry="1.7777838"
           y="-136.3569"
           x="303.70395"
           height="78.222481"
           width="14.902435"
           id="rect13740"
           style="fill:#ffffff;fill-opacity:1;stroke:none" />
      </g>
    </g>
    <g
       id="g13821">
      <path
         transform="matrix(0.7017271,0,0,0.7017271,234.12103,334.32475)"
         d="m 329.30972,761.43823 a 147.48227,147.48227 0 1 1 -294.964536,0 147.48227,147.48227 0 1 1 294.964536,0 z"
         sodipodi:ry="147.48227"
         sodipodi:rx="147.48227"
         sodipodi:cy="761.43823"
         sodipodi:cx="181.82745"
         id="path13744"
         style="fill:#ffffff;fill-opacity:1;stroke:#ff0000;stroke-width:7.12527705;stroke-miterlimit:4;stroke-dasharray:none"
         sodipodi:type="arc" />
      <path
         style="fill:none;stroke:#000000;stroke-width:18.58606911;stroke-miterlimit:4;stroke-dasharray:none"
         d="m 389.35873,853.69114 c 0,19.988 -16.20346,36.19146 -36.19151,36.19146 -19.98796,0 -36.19142,-16.20346 -36.19142,-36.19146 0,-19.98798 16.20346,-36.19147 36.19142,-36.19147 19.98805,0 36.19151,16.20349 36.19151,36.19147 z"
         id="path13746"
         inkscape:connector-curvature="0"
         inkscape:export-filename="/home/mdamt/rect4269.png"
         inkscape:export-xdpi="285.01001"
         inkscape:export-ydpi="285.01001" />
      <path
         style="fill:#aa0000;fill-opacity:1;stroke:#ff0000;stroke-width:15.11616707;stroke-linecap:round;stroke-linejoin:round;stroke-miterlimit:4;stroke-opacity:1"
         d="m 405.5744,816.93521 0.84949,0 0,77.67706 -0.84949,0 z"
         id="path13748"
         inkscape:connector-curvature="0"
         inkscape:export-xdpi="285.01001"
         inkscape:export-ydpi="285.01001" />
      <g
         style="fill:#000000"
         transform="matrix(0.26137214,0,0,0.26137214,254.82418,946.66872)"
         id="g13750">
        <path
           d="m 263.93201,-124.64344 -11.43224,0 0,21.51947 c 0.14942,4e-5 0.85927,4e-5 2.12956,0 1.2703,-0.0747 2.46575,-0.11206 3.58663,-0.11206 1.19545,-0.0747 2.80192,-0.18676 4.81943,-0.33623 2.09221,-0.22412 3.69868,-0.44828 4.81942,-0.67249 1.19559,-0.29884 2.54044,-0.74716 4.03501,-1.34498 1.56897,-0.59772 2.72721,-1.30756 3.47442,-2.12953 1.94265,-1.94268 2.91412,-4.33373 2.91412,-7.17316 0,-4.78204 -2.69001,-7.80821 -8.06987,-9.07852 -1.79324,-0.44827 -3.88545,-0.67243 -6.27648,-0.67249 m 0.78456,30.26178 -12.2168,0.67248 0,22.5282 10.984,0 c 4.85677,2e-5 8.25649,-0.22414 10.19929,-0.67247 2.01735,-0.44831 3.73603,-0.934 5.15575,-1.45705 1.41956,-0.59775 2.54044,-1.27023 3.36236,-2.01746 2.09221,-1.79326 3.13824,-4.10959 3.13824,-6.949 0,-3.73599 -1.8681,-6.68744 -5.60399,-8.85437 -3.66132,-2.16686 -8.66766,-3.25031 -15.01885,-3.25033 m -26.00271,-41.91817 28.02021,0 c 7.32252,7e-5 13.00135,1.23297 17.03622,3.69867 3.96015,2.39112 6.61266,5.08105 7.95781,8.06979 1.27015,2.91417 1.86795,5.60411 1.79324,8.06982 0,2.46582 -0.6725,5.00632 -2.0175,7.62148 -1.2703,2.54054 -2.95148,4.67007 -5.04354,6.38859 6.05222,2.46582 10.01237,6.91168 11.88047,13.33761 0.52293,2.01747 0.78455,3.99756 0.78455,5.94026 0,1.86803 -0.22411,3.73606 -0.6725,5.60404 -0.44838,1.86802 -1.45706,3.99756 -3.02618,6.38859 -1.49442,2.31635 -3.43707,4.40853 -5.8281,6.27654 -2.39119,1.79327 -5.75355,3.32505 -10.08723,4.5953 -4.25913,1.19552 -9.15341,1.79328 -14.68269,1.79328 l -26.11476,0 0,-77.78397"
           style="font-size:75.31466675px;font-style:normal;font-weight:bold;line-height:125%;letter-spacing:0px;word-spacing:0px;fill:#000000;fill-opacity:1;stroke:none;font-family:Sans;-inkscape-font-specification:Sans Bold"
           id="path13752"
           inkscape:connector-curvature="0" />
        <path
           d="m 327.9547,-110.07297 c 7.02369,-2.39099 13.48708,-3.58652 19.39004,-3.58657 5.97751,5e-5 10.64753,0.52309 14.01003,1.56912 3.43707,1.04614 6.01487,2.54056 7.73355,4.48324 3.21295,3.5119 4.81942,8.06984 4.81942,13.67383 l 0,35.41749 -10.08722,0 -1.45707,-3.58659 c -4.93163,3.13826 -10.46091,4.70745 -16.58798,4.70745 -8.51811,0 -14.944,-2.42847 -19.27784,-7.2853 -2.31633,-2.68992 -3.47442,-5.5293 -3.47442,-8.51813 0,-2.76463 0.37353,-5.08096 1.12074,-6.949 0.74721,-1.94271 1.98015,-3.51183 3.69869,-4.70739 1.71853,-1.27021 3.54927,-2.27893 5.49192,-3.02617 1.9428,-0.8219 4.48324,-1.41967 7.62149,-1.7933 5.08104,-0.59772 11.58164,-0.89661 19.50211,-0.89663 l 0,-0.78458 c -1.6e-4,-4.93151 -2.01751,-8.06976 -6.05238,-9.41477 -1.86809,-0.59772 -4.6328,-0.89661 -8.29398,-0.89665 -3.66134,4e-5 -8.70502,0.78462 -15.13092,2.35369 l -2.12957,0.67249 -2.80192,-10.87182 1.90531,-0.56041 m 32.50346,37.54703 0,-7.84565 -1.34501,0 c -8.21929,3e-5 -13.93548,0.33627 -17.14842,1.00872 -3.13825,0.67251 -4.70737,2.31636 -4.70737,4.93156 0,1.71858 1.00868,3.06355 3.02619,4.0349 2.09221,0.97138 5.11839,1.45705 9.07855,1.45705 3.96015,0 7.65884,-1.19552 11.09606,-3.58658"
           style="font-size:75.31466675px;font-style:normal;font-weight:bold;line-height:125%;letter-spacing:0px;word-spacing:0px;fill:#000000;fill-opacity:1;stroke:none;font-family:Sans;-inkscape-font-specification:Sans Bold"
           id="path13754"
           inkscape:connector-curvature="0" />
        <path
           d="m 379.38122,-112.53874 9.41472,0 1.79324,3.69867 c 7.0237,-3.21293 13.37504,-4.81942 19.05373,-4.81947 9.26531,5e-5 15.24297,3.43719 17.93298,10.31141 1.34486,3.43718 2.05471,7.7336 2.12941,12.88928 l 0,31.94299 -13.56165,0 0,-31.71883 c -1.4e-4,-3.8107 -0.82206,-6.538 -2.46573,-8.18188 -1.71869,-1.79326 -4.44605,-2.68989 -8.18194,-2.68994 -3.66133,5e-5 -7.8831,1.00877 -12.66518,3.02617 l 0,39.56448 -13.44958,0 0,-54.02288"
           style="font-size:75.31466675px;font-style:normal;font-weight:bold;line-height:125%;letter-spacing:0px;word-spacing:0px;fill:#000000;fill-opacity:1;stroke:none;font-family:Sans;-inkscape-font-specification:Sans Bold"
           id="path13756"
           inkscape:connector-curvature="0" />
        <path
           d="m 448.91737,-90.90717 23.31284,-22.75237 16.1396,0 -26.67521,24.76982 27.57183,30.37386 -16.58798,0 -23.76108,-26.89936 0,26.89936 -13.44974,0 0,-77.78398 13.44974,0 0,45.39267"
           style="font-size:75.31466675px;font-style:normal;font-weight:bold;line-height:125%;letter-spacing:0px;word-spacing:0px;fill:#000000;fill-opacity:1;stroke:none;font-family:Sans;-inkscape-font-specification:Sans Bold"
           id="path13758"
           inkscape:connector-curvature="0" />
        <path
           d="m 525.17407,-131.13174 c 7.17311,7e-5 13.63635,1.56921 19.3899,4.70739 5.75339,3.0636 10.31134,7.58418 13.67386,13.56176 3.43706,5.97768 5.15559,12.85195 5.15575,20.62284 -1.6e-4,11.95529 -3.66149,21.7063 -10.984,29.25305 -7.24796,7.4721 -16.47593,11.2081 -27.6839,11.2081 -9.93781,0 -18.64283,-3.2504 -26.11476,-9.75105 -3.58663,-3.13824 -6.4634,-7.28522 -8.63017,-12.44096 -2.16692,-5.15568 -3.25045,-10.90916 -3.25045,-17.26042 0,-11.95522 3.62398,-21.59414 10.87194,-28.9168 7.32252,-7.32253 16.51313,-10.98384 27.57183,-10.98391 m 8.18178,14.23424 c -2.83941,-1.04602 -5.75339,-1.56907 -8.74222,-1.56912 -2.91412,5e-5 -5.75354,0.5231 -8.51811,1.56912 -2.76472,1.04615 -5.30516,2.57792 -7.62149,4.5953 -2.31633,2.01752 -4.18442,4.74481 -5.60413,8.18189 -1.34486,3.4372 -2.01736,7.36002 -2.01736,11.76847 0,8.44344 2.35368,15.243 7.06105,20.39868 4.70736,5.08101 10.57296,7.62151 17.59666,7.62149 6.05236,2e-5 11.39488,-2.09215 16.02754,-6.27651 2.31633,-2.09216 4.18427,-4.93154 5.60398,-8.51813 1.41971,-3.58655 2.12956,-7.65881 2.12956,-12.21679 0,-4.63263 -0.7472,-8.74226 -2.24162,-12.32888 -1.41971,-3.58653 -3.36251,-6.4259 -5.8281,-8.51813 -2.39119,-2.09211 -5.00634,-3.66124 -7.84576,-4.70739"
           style="font-size:75.31466675px;font-style:normal;font-weight:bold;line-height:125%;letter-spacing:0px;word-spacing:0px;fill:#000000;fill-opacity:1;stroke:none;font-family:Sans;-inkscape-font-specification:Sans Bold"
           id="path13760"
           inkscape:connector-curvature="0" />
        <path
           d="m 566.993,-112.53874 9.41488,0 1.79323,3.69867 c 7.0237,-3.21293 13.37487,-4.81942 19.05375,-4.81947 9.26531,5e-5 15.24295,3.43719 17.93278,10.31141 1.34505,3.43718 2.05486,7.7336 2.12957,12.88928 l 0,31.94299 -13.56177,0 0,-31.71883 c 0,-3.8107 -0.8219,-6.538 -2.46577,-8.18188 -1.71852,-1.79326 -4.44586,-2.68989 -8.18178,-2.68994 -3.66131,5e-5 -7.88308,1.00877 -12.66516,3.02617 l 0,39.56448 -13.44973,0 0,-54.02288"
           style="font-size:75.31466675px;font-style:normal;font-weight:bold;line-height:125%;letter-spacing:0px;word-spacing:0px;fill:#000000;fill-opacity:1;stroke:none;font-family:Sans;-inkscape-font-specification:Sans Bold"
           id="path13762"
           inkscape:connector-curvature="0" />
        <rect
           style="fill:#000000;fill-opacity:1;stroke:none"
           id="rect13764"
           width="14.902435"
           height="78.222481"
           x="303.70395"
           y="-136.3569"
           ry="1.7777838" />
      </g>
    </g>
  </g>
</svg>
